<?xml version="1.0" encoding="utf-8" standalone="no"?>
<!DOCTYPE svg PUBLIC "-//W3C//DTD SVG 1.1//EN"
  "http://www.w3.org/Graphics/SVG/1.1/DTD/svg11.dtd">
<!-- Created with matplotlib (https://matplotlib.org/) -->
<svg height="288pt" version="1.1" viewBox="0 0 432 288" width="432pt" xmlns="http://www.w3.org/2000/svg" xmlns:xlink="http://www.w3.org/1999/xlink">
 <defs>
  <style type="text/css">
*{stroke-linecap:butt;stroke-linejoin:round;}
  </style>
 </defs>
 <g id="figure_1">
  <g id="patch_1">
   <path d="M 0 288 
L 432 288 
L 432 0 
L 0 0 
z
" style="fill:#ffffff;"/>
  </g>
  <g id="axes_1">
   <g id="patch_2">
    <path d="M 54 252 
L 388.8 252 
L 388.8 34.56 
L 54 34.56 
z
" style="fill:#ffffff;"/>
   </g>
   <g id="matplotlib.axis_1">
    <g id="xtick_1">
     <g id="text_1">
      <!-- 20 -->
      <defs>
       <path d="M 50.34375 8.453125 
L 50.34375 0 
L 3.03125 0 
Q 2.9375 3.171875 4.046875 6.109375 
Q 5.859375 10.9375 9.828125 15.625 
Q 13.8125 20.3125 21.34375 26.46875 
Q 33.015625 36.03125 37.109375 41.625 
Q 41.21875 47.21875 41.21875 52.203125 
Q 41.21875 57.421875 37.46875 61 
Q 33.734375 64.59375 27.734375 64.59375 
Q 21.390625 64.59375 17.578125 60.78125 
Q 13.765625 56.984375 13.71875 50.25 
L 4.6875 51.171875 
Q 5.609375 61.28125 11.65625 66.578125 
Q 17.71875 71.875 27.9375 71.875 
Q 38.234375 71.875 44.234375 66.15625 
Q 50.25 60.453125 50.25 52 
Q 50.25 47.703125 48.484375 43.546875 
Q 46.734375 39.40625 42.65625 34.8125 
Q 38.578125 30.21875 29.109375 22.21875 
Q 21.1875 15.578125 18.9375 13.203125 
Q 16.703125 10.84375 15.234375 8.453125 
z
" id="ArialMT-50"/>
       <path d="M 4.15625 35.296875 
Q 4.15625 48 6.765625 55.734375 
Q 9.375 63.484375 14.515625 67.671875 
Q 19.671875 71.875 27.484375 71.875 
Q 33.25 71.875 37.59375 69.546875 
Q 41.9375 67.234375 44.765625 62.859375 
Q 47.609375 58.5 49.21875 52.21875 
Q 50.828125 45.953125 50.828125 35.296875 
Q 50.828125 22.703125 48.234375 14.96875 
Q 45.65625 7.234375 40.5 3 
Q 35.359375 -1.21875 27.484375 -1.21875 
Q 17.140625 -1.21875 11.234375 6.203125 
Q 4.15625 15.140625 4.15625 35.296875 
z
M 13.1875 35.296875 
Q 13.1875 17.671875 17.3125 11.828125 
Q 21.4375 6 27.484375 6 
Q 33.546875 6 37.671875 11.859375 
Q 41.796875 17.71875 41.796875 35.296875 
Q 41.796875 52.984375 37.671875 58.78125 
Q 33.546875 64.59375 27.390625 64.59375 
Q 21.34375 64.59375 17.71875 59.46875 
Q 13.1875 52.9375 13.1875 35.296875 
z
" id="ArialMT-48"/>
      </defs>
      <g style="fill:#262626;" transform="translate(61.089256 262.657812)scale(0.1 -0.1)">
       <use xlink:href="#ArialMT-50"/>
       <use x="55.615234" xlink:href="#ArialMT-48"/>
      </g>
     </g>
    </g>
    <g id="xtick_2">
     <g id="text_2">
      <!-- 40 -->
      <defs>
       <path d="M 32.328125 0 
L 32.328125 17.140625 
L 1.265625 17.140625 
L 1.265625 25.203125 
L 33.9375 71.578125 
L 41.109375 71.578125 
L 41.109375 25.203125 
L 50.78125 25.203125 
L 50.78125 17.140625 
L 41.109375 17.140625 
L 41.109375 0 
z
M 32.328125 25.203125 
L 32.328125 57.46875 
L 9.90625 25.203125 
z
" id="ArialMT-52"/>
      </defs>
      <g style="fill:#262626;" transform="translate(114.635902 262.657812)scale(0.1 -0.1)">
       <use xlink:href="#ArialMT-52"/>
       <use x="55.615234" xlink:href="#ArialMT-48"/>
      </g>
     </g>
    </g>
    <g id="xtick_3">
     <g id="text_3">
      <!-- 60 -->
      <defs>
       <path d="M 49.75 54.046875 
L 41.015625 53.375 
Q 39.84375 58.546875 37.703125 60.890625 
Q 34.125 64.65625 28.90625 64.65625 
Q 24.703125 64.65625 21.53125 62.3125 
Q 17.390625 59.28125 14.984375 53.46875 
Q 12.59375 47.65625 12.5 36.921875 
Q 15.671875 41.75 20.265625 44.09375 
Q 24.859375 46.4375 29.890625 46.4375 
Q 38.671875 46.4375 44.84375 39.96875 
Q 51.03125 33.5 51.03125 23.25 
Q 51.03125 16.5 48.125 10.71875 
Q 45.21875 4.9375 40.140625 1.859375 
Q 35.0625 -1.21875 28.609375 -1.21875 
Q 17.625 -1.21875 10.6875 6.859375 
Q 3.765625 14.9375 3.765625 33.5 
Q 3.765625 54.25 11.421875 63.671875 
Q 18.109375 71.875 29.4375 71.875 
Q 37.890625 71.875 43.28125 67.140625 
Q 48.6875 62.40625 49.75 54.046875 
z
M 13.875 23.1875 
Q 13.875 18.65625 15.796875 14.5 
Q 17.71875 10.359375 21.1875 8.171875 
Q 24.65625 6 28.46875 6 
Q 34.03125 6 38.03125 10.484375 
Q 42.046875 14.984375 42.046875 22.703125 
Q 42.046875 30.125 38.078125 34.390625 
Q 34.125 38.671875 28.125 38.671875 
Q 22.171875 38.671875 18.015625 34.390625 
Q 13.875 30.125 13.875 23.1875 
z
" id="ArialMT-54"/>
      </defs>
      <g style="fill:#262626;" transform="translate(168.182548 262.657812)scale(0.1 -0.1)">
       <use xlink:href="#ArialMT-54"/>
       <use x="55.615234" xlink:href="#ArialMT-48"/>
      </g>
     </g>
    </g>
    <g id="xtick_4">
     <g id="text_4">
      <!-- 80 -->
      <defs>
       <path d="M 17.671875 38.8125 
Q 12.203125 40.828125 9.5625 44.53125 
Q 6.9375 48.25 6.9375 53.421875 
Q 6.9375 61.234375 12.546875 66.546875 
Q 18.171875 71.875 27.484375 71.875 
Q 36.859375 71.875 42.578125 66.421875 
Q 48.296875 60.984375 48.296875 53.171875 
Q 48.296875 48.1875 45.671875 44.5 
Q 43.0625 40.828125 37.75 38.8125 
Q 44.34375 36.671875 47.78125 31.875 
Q 51.21875 27.09375 51.21875 20.453125 
Q 51.21875 11.28125 44.71875 5.03125 
Q 38.234375 -1.21875 27.640625 -1.21875 
Q 17.046875 -1.21875 10.546875 5.046875 
Q 4.046875 11.328125 4.046875 20.703125 
Q 4.046875 27.6875 7.59375 32.390625 
Q 11.140625 37.109375 17.671875 38.8125 
z
M 15.921875 53.71875 
Q 15.921875 48.640625 19.1875 45.40625 
Q 22.46875 42.1875 27.6875 42.1875 
Q 32.765625 42.1875 36.015625 45.375 
Q 39.265625 48.578125 39.265625 53.21875 
Q 39.265625 58.0625 35.90625 61.359375 
Q 32.5625 64.65625 27.59375 64.65625 
Q 22.5625 64.65625 19.234375 61.421875 
Q 15.921875 58.203125 15.921875 53.71875 
z
M 13.09375 20.65625 
Q 13.09375 16.890625 14.875 13.375 
Q 16.65625 9.859375 20.171875 7.921875 
Q 23.6875 6 27.734375 6 
Q 34.03125 6 38.125 10.046875 
Q 42.234375 14.109375 42.234375 20.359375 
Q 42.234375 26.703125 38.015625 30.859375 
Q 33.796875 35.015625 27.4375 35.015625 
Q 21.234375 35.015625 17.15625 30.90625 
Q 13.09375 26.8125 13.09375 20.65625 
z
" id="ArialMT-56"/>
      </defs>
      <g style="fill:#262626;" transform="translate(221.729194 262.657812)scale(0.1 -0.1)">
       <use xlink:href="#ArialMT-56"/>
       <use x="55.615234" xlink:href="#ArialMT-48"/>
      </g>
     </g>
    </g>
    <g id="xtick_5">
     <g id="text_5">
      <!-- 100 -->
      <defs>
       <path d="M 37.25 0 
L 28.46875 0 
L 28.46875 56 
Q 25.296875 52.984375 20.140625 49.953125 
Q 14.984375 46.921875 10.890625 45.40625 
L 10.890625 53.90625 
Q 18.265625 57.375 23.78125 62.296875 
Q 29.296875 67.234375 31.59375 71.875 
L 37.25 71.875 
z
" id="ArialMT-49"/>
      </defs>
      <g style="fill:#262626;" transform="translate(272.495371 262.657812)scale(0.1 -0.1)">
       <use xlink:href="#ArialMT-49"/>
       <use x="55.615234" xlink:href="#ArialMT-48"/>
       <use x="111.230469" xlink:href="#ArialMT-48"/>
      </g>
     </g>
    </g>
    <g id="xtick_6">
     <g id="text_6">
      <!-- 120 -->
      <g style="fill:#262626;" transform="translate(326.042017 262.657812)scale(0.1 -0.1)">
       <use xlink:href="#ArialMT-49"/>
       <use x="55.615234" xlink:href="#ArialMT-50"/>
       <use x="111.230469" xlink:href="#ArialMT-48"/>
      </g>
     </g>
    </g>
    <g id="xtick_7">
     <g id="text_7">
      <!-- 140 -->
      <g style="fill:#262626;" transform="translate(379.588663 262.657812)scale(0.1 -0.1)">
       <use xlink:href="#ArialMT-49"/>
       <use x="55.615234" xlink:href="#ArialMT-52"/>
       <use x="111.230469" xlink:href="#ArialMT-48"/>
      </g>
     </g>
    </g>
    <g id="text_8">
     <!-- x -->
     <defs>
      <path d="M 0.734375 0 
L 19.671875 26.953125 
L 2.15625 51.859375 
L 13.140625 51.859375 
L 21.09375 39.703125 
Q 23.34375 36.234375 24.703125 33.890625 
Q 26.859375 37.109375 28.65625 39.59375 
L 37.40625 51.859375 
L 47.90625 51.859375 
L 29.984375 27.4375 
L 49.265625 0 
L 38.484375 0 
L 27.828125 16.109375 
L 25 20.453125 
L 11.375 0 
z
" id="ArialMT-120"/>
     </defs>
     <g style="fill:#262626;" transform="translate(218.9 275.803125)scale(0.1 -0.1)">
      <use xlink:href="#ArialMT-120"/>
     </g>
    </g>
   </g>
   <g id="matplotlib.axis_2">
    <g id="ytick_1">
     <g id="text_9">
      <!-- 20 -->
      <g style="fill:#262626;" transform="translate(39.378125 226.18247)scale(0.1 -0.1)">
       <use xlink:href="#ArialMT-50"/>
       <use x="55.615234" xlink:href="#ArialMT-48"/>
      </g>
     </g>
    </g>
    <g id="ytick_2">
     <g id="text_10">
      <!-- 40 -->
      <g style="fill:#262626;" transform="translate(39.378125 190.927553)scale(0.1 -0.1)">
       <use xlink:href="#ArialMT-52"/>
       <use x="55.615234" xlink:href="#ArialMT-48"/>
      </g>
     </g>
    </g>
    <g id="ytick_3">
     <g id="text_11">
      <!-- 60 -->
      <g style="fill:#262626;" transform="translate(39.378125 155.672636)scale(0.1 -0.1)">
       <use xlink:href="#ArialMT-54"/>
       <use x="55.615234" xlink:href="#ArialMT-48"/>
      </g>
     </g>
    </g>
    <g id="ytick_4">
     <g id="text_12">
      <!-- 80 -->
      <g style="fill:#262626;" transform="translate(39.378125 120.417718)scale(0.1 -0.1)">
       <use xlink:href="#ArialMT-56"/>
       <use x="55.615234" xlink:href="#ArialMT-48"/>
      </g>
     </g>
    </g>
    <g id="ytick_5">
     <g id="text_13">
      <!-- 100 -->
      <g style="fill:#262626;" transform="translate(33.817188 85.162801)scale(0.1 -0.1)">
       <use xlink:href="#ArialMT-49"/>
       <use x="55.615234" xlink:href="#ArialMT-48"/>
       <use x="111.230469" xlink:href="#ArialMT-48"/>
      </g>
     </g>
    </g>
    <g id="ytick_6">
     <g id="text_14">
      <!-- 120 -->
      <g style="fill:#262626;" transform="translate(33.817188 49.907884)scale(0.1 -0.1)">
       <use xlink:href="#ArialMT-49"/>
       <use x="55.615234" xlink:href="#ArialMT-50"/>
       <use x="111.230469" xlink:href="#ArialMT-48"/>
      </g>
     </g>
    </g>
    <g id="text_15">
     <!-- y -->
     <defs>
      <path d="M 6.203125 -19.96875 
L 5.21875 -11.71875 
Q 8.109375 -12.5 10.25 -12.5 
Q 13.1875 -12.5 14.9375 -11.515625 
Q 16.703125 -10.546875 17.828125 -8.796875 
Q 18.65625 -7.46875 20.515625 -2.25 
Q 20.75 -1.515625 21.296875 -0.09375 
L 1.609375 51.859375 
L 11.078125 51.859375 
L 21.875 21.828125 
Q 23.96875 16.109375 25.640625 9.8125 
Q 27.15625 15.875 29.25 21.625 
L 40.328125 51.859375 
L 49.125 51.859375 
L 29.390625 -0.875 
Q 26.21875 -9.421875 24.46875 -12.640625 
Q 22.125 -17 19.09375 -19.015625 
Q 16.0625 -21.046875 11.859375 -21.046875 
Q 9.328125 -21.046875 6.203125 -19.96875 
z
" id="ArialMT-121"/>
     </defs>
     <g style="fill:#262626;" transform="translate(27.7125 145.78)rotate(-90)scale(0.1 -0.1)">
      <use xlink:href="#ArialMT-121"/>
     </g>
    </g>
   </g>
   <g id="PathCollection_1">
    <path clip-path="url(#p80dea5fbdf)" d="M 57.381818 252 
L 60.763636 252 
L 64.145455 252 
L 67.527273 252 
L 70.909091 252 
L 74.290909 252 
L 77.672727 252 
L 81.054545 252 
L 84.436364 252 
L 87.818182 252 
L 91.2 252 
L 94.581818 252 
L 97.963636 252 
L 101.345455 252 
L 104.727273 252 
L 108.109091 252 
L 111.490909 252 
L 114.872727 252 
L 118.254545 252 
L 121.636364 252 
L 125.018182 252 
L 128.4 252 
L 131.781818 252 
L 135.163636 252 
L 138.545455 252 
L 141.927273 252 
L 145.309091 252 
L 148.690909 252 
L 152.072727 252 
L 155.454545 252 
L 158.836364 252 
L 162.218182 252 
L 165.6 252 
L 168.981818 252 
L 172.363636 252 
L 175.745455 252 
L 179.127273 252 
L 182.509091 252 
L 185.890909 252 
L 189.272727 252 
L 192.654545 252 
L 196.036364 252 
L 199.418182 252 
L 202.8 252 
L 206.181818 252 
L 209.563636 252 
L 212.945455 252 
L 216.327273 252 
L 219.709091 252 
L 223.090909 252 
L 226.472727 252 
L 229.854545 252 
L 233.236364 252 
L 236.618182 252 
L 240 252 
L 243.381818 252 
L 246.763636 252 
L 250.145455 252 
L 253.527273 252 
L 256.909091 252 
L 260.290909 252 
L 263.672727 252 
L 267.054545 252 
L 270.436364 252 
L 273.818182 252 
L 277.2 252 
L 280.581818 252 
L 283.963636 252 
L 287.345455 252 
L 290.727273 252 
L 294.109091 252 
L 297.490909 252 
L 300.872727 252 
L 304.254545 252 
L 307.636364 252 
L 311.018182 252 
L 314.4 252 
L 317.781818 252 
L 321.163636 252 
L 324.545455 252 
L 327.927273 252 
L 331.309091 252 
L 334.690909 252 
L 338.072727 252 
L 341.454545 252 
L 344.836364 252 
L 348.218182 252 
L 351.6 252 
L 354.981818 252 
L 358.363636 252 
L 361.745455 252 
L 365.127273 252 
L 368.509091 252 
L 371.890909 252 
L 375.272727 252 
L 378.654545 252 
L 382.036364 252 
L 385.418182 252 
L 388.8 252 
L 388.8 249.803636 
L 388.8 247.607273 
L 388.8 245.410909 
L 388.8 243.214545 
L 388.8 241.018182 
L 388.8 238.821818 
L 388.8 236.625455 
L 388.8 234.429091 
L 388.8 232.232727 
L 388.8 230.036364 
L 388.8 227.84 
L 388.8 225.643636 
L 388.8 223.447273 
L 388.8 221.250909 
L 388.8 219.054545 
L 388.8 216.858182 
L 388.8 214.661818 
L 388.8 212.465455 
L 388.8 210.269091 
L 388.8 208.072727 
L 388.8 205.876364 
L 388.8 203.68 
L 388.8 201.483636 
L 388.8 199.287273 
L 388.8 197.090909 
L 388.8 194.894545 
L 388.8 192.698182 
L 388.8 190.501818 
L 388.8 188.305455 
L 388.8 186.109091 
L 388.8 183.912727 
L 388.8 181.716364 
L 388.8 179.52 
L 388.8 177.323636 
L 388.8 175.127273 
L 388.8 172.930909 
L 388.8 170.734545 
L 388.8 168.538182 
L 388.8 166.341818 
L 388.8 164.145455 
L 388.8 161.949091 
L 388.8 159.752727 
L 388.8 157.556364 
L 388.8 155.36 
L 388.8 153.163636 
L 388.8 150.967273 
L 388.8 148.770909 
L 388.8 146.574545 
L 388.8 144.378182 
L 388.8 142.181818 
L 388.8 139.985455 
L 388.8 137.789091 
L 388.8 135.592727 
L 388.8 133.396364 
L 388.8 131.2 
L 388.8 129.003636 
L 388.8 126.807273 
L 388.8 124.610909 
L 388.8 122.414545 
L 388.8 120.218182 
L 388.8 118.021818 
L 388.8 115.825455 
L 388.8 113.629091 
L 388.8 111.432727 
L 388.8 109.236364 
L 388.8 107.04 
L 388.8 104.843636 
L 388.8 102.647273 
L 388.8 100.450909 
L 388.8 98.254545 
L 388.8 96.058182 
L 388.8 93.861818 
L 388.8 91.665455 
L 388.8 89.469091 
L 388.8 87.272727 
L 388.8 85.076364 
L 388.8 82.88 
L 388.8 80.683636 
L 388.8 78.487273 
L 388.8 76.290909 
L 388.8 74.094545 
L 388.8 71.898182 
L 388.8 69.701818 
L 388.8 67.505455 
L 388.8 65.309091 
L 388.8 63.112727 
L 388.8 60.916364 
L 388.8 58.72 
L 388.8 56.523636 
L 388.8 54.327273 
L 388.8 52.130909 
L 388.8 49.934545 
L 388.8 47.738182 
L 388.8 45.541818 
L 388.8 43.345455 
L 388.8 41.149091 
L 388.8 38.952727 
L 388.8 36.756364 
L 388.8 34.56 
L 385.418182 34.56 
L 382.036364 34.56 
L 378.654545 34.56 
L 375.272727 34.56 
L 371.890909 34.56 
L 368.509091 34.56 
L 365.127273 34.56 
L 361.745455 34.56 
L 358.363636 34.56 
L 354.981818 34.56 
L 351.6 34.56 
L 348.218182 34.56 
L 344.836364 34.56 
L 341.454545 34.56 
L 338.072727 34.56 
L 334.690909 34.56 
L 331.309091 34.56 
L 327.927273 34.56 
L 324.545455 34.56 
L 321.163636 34.56 
L 317.781818 34.56 
L 314.4 34.56 
L 311.018182 34.56 
L 307.636364 34.56 
L 304.254545 34.56 
L 300.872727 34.56 
L 297.490909 34.56 
L 294.109091 34.56 
L 290.727273 34.56 
L 287.345455 34.56 
L 283.963636 34.56 
L 280.581818 34.56 
L 277.2 34.56 
L 273.818182 34.56 
L 270.436364 34.56 
L 267.054545 34.56 
L 263.672727 34.56 
L 260.290909 34.56 
L 256.909091 34.56 
L 253.527273 34.56 
L 250.145455 34.56 
L 246.763636 34.56 
L 243.381818 34.56 
L 240 34.56 
L 236.618182 34.56 
L 233.236364 34.56 
L 229.854545 34.56 
L 226.472727 34.56 
L 223.090909 34.56 
L 219.709091 34.56 
L 216.327273 34.56 
L 212.945455 34.56 
L 209.563636 34.56 
L 206.181818 34.56 
L 202.8 34.56 
L 199.418182 34.56 
L 196.036364 34.56 
L 192.654545 34.56 
L 189.272727 34.56 
L 185.890909 34.56 
L 182.509091 34.56 
L 179.127273 34.56 
L 175.745455 34.56 
L 172.363636 34.56 
L 168.981818 34.56 
L 165.6 34.56 
L 162.218182 34.56 
L 158.836364 34.56 
L 155.454545 34.56 
L 152.072727 34.56 
L 148.690909 34.56 
L 145.309091 34.56 
L 141.927273 34.56 
L 138.545455 34.56 
L 135.163636 34.56 
L 131.781818 34.56 
L 128.4 34.56 
L 125.018182 34.56 
L 121.636364 34.56 
L 118.254545 34.56 
L 114.872727 34.56 
L 111.490909 34.56 
L 108.109091 34.56 
L 104.727273 34.56 
L 101.345455 34.56 
L 97.963636 34.56 
L 94.581818 34.56 
L 91.2 34.56 
L 87.818182 34.56 
L 84.436364 34.56 
L 81.054545 34.56 
L 77.672727 34.56 
L 74.290909 34.56 
L 70.909091 34.56 
L 67.527273 34.56 
L 64.145455 34.56 
L 60.763636 34.56 
L 57.381818 34.56 
L 54 34.56 
L 54 36.756364 
L 54 38.952727 
L 54 41.149091 
L 54 43.345455 
L 54 45.541818 
L 54 47.738182 
L 54 49.934545 
L 54 52.130909 
L 54 54.327273 
L 54 56.523636 
L 54 58.72 
L 54 60.916364 
L 54 63.112727 
L 54 65.309091 
L 54 67.505455 
L 54 69.701818 
L 54 71.898182 
L 54 74.094545 
L 54 76.290909 
L 54 78.487273 
L 54 80.683636 
L 54 82.88 
L 54 85.076364 
L 54 87.272727 
L 54 89.469091 
L 54 91.665455 
L 54 93.861818 
L 54 96.058182 
L 54 98.254545 
L 54 100.450909 
L 54 102.647273 
L 54 104.843636 
L 54 107.04 
L 54 109.236364 
L 54 111.432727 
L 54 113.629091 
L 54 115.825455 
L 54 118.021818 
L 54 120.218182 
L 54 122.414545 
L 54 124.610909 
L 54 126.807273 
L 54 129.003636 
L 54 131.2 
L 54 133.396364 
L 54 135.592727 
L 54 137.789091 
L 54 139.985455 
L 54 142.181818 
L 54 144.378182 
L 54 146.574545 
L 54 148.770909 
L 54 150.967273 
L 54 153.163636 
L 54 155.36 
L 54 157.556364 
L 54 159.752727 
L 54 161.949091 
L 54 164.145455 
L 54 166.341818 
L 54 168.538182 
L 54 170.734545 
L 54 172.930909 
L 54 175.127273 
L 54 177.323636 
L 54 179.52 
L 54 181.716364 
L 54 183.912727 
L 54 186.109091 
L 54 188.305455 
L 54 190.501818 
L 54 192.698182 
L 54 194.894545 
L 54 197.090909 
L 54 199.287273 
L 54 201.483636 
L 54 203.68 
L 54 205.876364 
L 54 208.072727 
L 54 210.269091 
L 54 212.465455 
L 54 214.661818 
L 54 216.858182 
L 54 219.054545 
L 54 221.250909 
L 54 223.447273 
L 54 225.643636 
L 54 227.84 
L 54 230.036364 
L 54 232.232727 
L 54 234.429091 
L 54 236.625455 
L 54 238.821818 
L 54 241.018182 
L 54 243.214545 
L 54 245.410909 
L 54 247.607273 
L 54 249.803636 
L 54 252 
z
M 204.101109 230.036364 
L 202.8 229.908624 
L 199.418182 229.635487 
L 196.036364 229.411558 
L 192.654545 229.194405 
L 189.272727 228.924773 
L 185.890909 228.551702 
L 182.509091 228.0424 
L 181.474884 227.84 
L 179.127273 227.371847 
L 175.745455 226.581139 
L 172.363636 225.662755 
L 172.301607 225.643636 
L 168.981818 224.638052 
L 165.6 223.524979 
L 165.381368 223.447273 
L 162.218182 222.360711 
L 159.188677 221.250909 
L 158.836364 221.123138 
L 155.454545 219.841303 
L 153.526598 219.054545 
L 152.072727 218.425651 
L 148.817735 216.858182 
L 148.690909 216.785163 
L 145.477081 214.661818 
L 145.309091 214.498899 
L 143.460519 212.465455 
L 142.517145 210.269091 
L 142.407844 208.072727 
L 142.979909 205.876364 
L 144.151023 203.68 
L 145.309091 202.188406 
L 145.964202 201.483636 
L 148.592073 199.287273 
L 148.690909 199.214058 
L 152.072727 197.562556 
L 154.300439 197.090909 
L 155.454545 196.837581 
L 158.836364 196.898793 
L 159.616304 197.090909 
L 162.218182 197.698606 
L 165.538514 199.287273 
L 165.6 199.315893 
L 168.835809 201.483636 
L 168.981818 201.579117 
L 171.643005 203.68 
L 172.363636 204.23392 
L 174.366882 205.876364 
L 175.745455 206.964572 
L 177.212114 208.072727 
L 179.127273 209.438238 
L 180.478169 210.269091 
L 182.509091 211.439999 
L 184.790529 212.465455 
L 185.890909 212.946042 
L 189.272727 214.019078 
L 192.23692 214.661818 
L 192.654545 214.758142 
L 196.036364 215.237382 
L 199.418182 215.448435 
L 202.8 215.424428 
L 206.181818 215.193305 
L 209.563636 214.781015 
L 210.260931 214.661818 
L 212.945455 214.211017 
L 216.327273 213.497817 
L 219.709091 212.67133 
L 220.48812 212.465455 
L 223.090909 211.729627 
L 226.472727 210.820997 
L 228.794013 210.269091 
L 229.854545 210.002772 
L 233.236364 209.302841 
L 236.618182 208.762291 
L 240 208.334845 
L 242.583657 208.072727 
L 243.381818 207.987811 
L 246.763636 207.705575 
L 250.145455 207.495403 
L 253.527273 207.298271 
L 256.909091 207.01839 
L 260.290909 206.551668 
L 263.496797 205.876364 
L 263.672727 205.8339 
L 267.054545 204.821314 
L 270.436364 203.747687 
L 270.667276 203.68 
L 273.818182 202.607041 
L 277.2 201.687857 
L 278.17257 201.483636 
L 280.581818 200.868092 
L 283.963636 200.156275 
L 287.345455 199.361105 
L 287.587141 199.287273 
L 290.727273 198.155133 
L 292.879865 197.090909 
L 294.109091 196.397782 
L 296.280719 194.894545 
L 297.490909 194.001579 
L 299.077378 192.698182 
L 300.872727 191.233391 
L 301.738916 190.501818 
L 304.254545 188.414489 
L 304.386438 188.305455 
L 306.896198 186.109091 
L 307.636364 185.345538 
L 308.986503 183.912727 
L 310.443398 181.716364 
L 311.018182 180.437972 
L 311.449015 179.52 
L 312.272739 177.323636 
L 313.288995 175.127273 
L 314.4 173.653855 
L 315.086811 172.930909 
L 317.781818 171.048404 
L 318.360113 170.734545 
L 321.163636 169.403735 
L 323.2116 168.538182 
L 324.545455 167.85815 
L 327.375361 166.341818 
L 327.927273 165.701316 
L 329.213279 164.145455 
L 328.886341 161.949091 
L 327.927273 160.94111 
L 326.982314 159.752727 
L 324.545455 158.230491 
L 323.332609 157.556364 
L 321.163636 156.772544 
L 317.781818 156.008524 
L 314.4 155.790725 
L 311.018182 156.033243 
L 307.636364 156.55814 
L 304.254545 157.182357 
L 302.089139 157.556364 
L 300.872727 157.822174 
L 297.490909 158.34746 
L 294.109091 158.589913 
L 290.727273 158.562371 
L 287.345455 158.321189 
L 283.963636 157.943106 
L 281.070262 157.556364 
L 280.581818 157.483014 
L 277.2 156.907073 
L 273.818182 156.111286 
L 271.477281 155.36 
L 270.436364 154.975582 
L 267.054545 153.627317 
L 265.811295 153.163636 
L 263.672727 152.602474 
L 260.290909 151.967848 
L 256.909091 151.541946 
L 253.527273 151.210096 
L 251.089913 150.967273 
L 250.145455 150.900901 
L 246.763636 150.604339 
L 243.381818 150.232554 
L 240 149.785384 
L 236.618182 149.26094 
L 233.885935 148.770909 
L 233.236364 148.647133 
L 229.854545 147.895504 
L 226.472727 146.820968 
L 225.819611 146.574545 
L 223.090909 145.037415 
L 222.093524 144.378182 
L 220.763411 142.181818 
L 221.062049 139.985455 
L 222.003766 137.789091 
L 222.891539 135.592727 
L 223.090909 134.803874 
L 223.297413 133.396364 
L 223.294523 131.2 
L 223.090909 130.062192 
L 222.855355 129.003636 
L 221.82236 126.807273 
L 220.295227 124.610909 
L 219.709091 123.994909 
L 217.790412 122.414545 
L 216.327273 121.425665 
L 214.053702 120.218182 
L 212.945455 119.70228 
L 209.563636 118.414907 
L 208.399448 118.021818 
L 206.181818 117.281163 
L 202.8 116.025875 
L 202.324167 115.825455 
L 199.418182 114.34311 
L 198.307289 113.629091 
L 196.036364 111.567526 
L 195.900965 111.432727 
L 194.241782 109.236364 
L 193.139449 107.04 
L 192.654545 105.562494 
L 192.308816 104.843636 
L 191.59881 102.647273 
L 191.173484 100.450909 
L 192.654545 98.942008 
L 193.263818 98.254545 
L 196.036364 97.222185 
L 197.973142 96.058182 
L 199.418182 95.403116 
L 201.338565 93.861818 
L 202.8 92.620081 
L 203.507239 91.665455 
L 204.542521 89.469091 
L 204.79623 87.272727 
L 204.094927 85.076364 
L 202.8 83.359426 
L 201.556995 82.88 
L 199.418182 82.251927 
L 196.578433 82.88 
L 196.036364 83.002838 
L 192.931243 85.076364 
L 192.654545 85.326549 
L 191.243721 87.272727 
L 190.275702 89.469091 
L 189.802869 91.665455 
L 189.676519 93.861818 
L 189.721924 96.058182 
L 189.272727 97.672321 
L 189.069917 98.254545 
L 185.890909 99.541601 
L 182.509091 100.316828 
L 181.869055 100.450909 
L 179.127273 100.899939 
L 175.745455 101.386752 
L 172.363636 101.772438 
L 168.981818 101.996162 
L 165.6 101.919091 
L 162.218182 101.335676 
L 159.75012 100.450909 
L 158.836364 100.144483 
L 155.454545 98.711927 
L 154.381695 98.254545 
L 152.072727 97.463949 
L 148.690909 96.561035 
L 145.79696 96.058182 
L 145.309091 95.983731 
L 141.927273 95.732967 
L 138.545455 95.742909 
L 135.323692 96.058182 
L 135.163636 96.079969 
L 131.781818 97.103231 
L 130.0675 98.254545 
L 128.68252 100.450909 
L 128.4 101.33971 
L 128.041307 102.647273 
L 127.722065 104.843636 
L 127.577135 107.04 
L 127.521872 109.236364 
L 127.469199 111.432727 
L 127.294078 113.629091 
L 126.835259 115.825455 
L 125.929255 118.021818 
L 125.018182 119.399511 
L 124.437254 120.218182 
L 122.37002 122.414545 
L 121.636364 123.048414 
L 119.825976 124.610909 
L 118.254545 125.795059 
L 116.911365 126.807273 
L 114.872727 128.182336 
L 113.595071 129.003636 
L 111.490909 130.247268 
L 109.677704 131.2 
L 108.109091 132.007023 
L 104.886129 133.396364 
L 104.727273 133.470734 
L 101.345455 134.628446 
L 97.963636 135.232459 
L 94.581818 134.527888 
L 93.439229 133.396364 
L 92.176024 131.2 
L 91.684023 129.003636 
L 91.69375 126.807273 
L 92.083544 124.610909 
L 92.799176 122.414545 
L 93.815151 120.218182 
L 94.581818 118.903506 
L 95.130247 118.021818 
L 96.643674 115.825455 
L 97.963636 114.014482 
L 98.26759 113.629091 
L 99.944512 111.432727 
L 101.345455 109.549455 
L 101.591919 109.236364 
L 103.290268 107.04 
L 104.727273 105.251085 
L 105.079534 104.843636 
L 107.124823 102.647273 
L 108.109091 101.690789 
L 109.579466 100.450909 
L 111.490909 98.94086 
L 112.587064 98.254545 
L 114.872727 96.803269 
L 116.39192 96.058182 
L 118.254545 95.006645 
L 120.47554 93.861818 
L 121.636364 93.031669 
L 123.204841 91.665455 
L 124.713626 89.469091 
L 125.018182 88.983562 
L 125.875974 87.272727 
L 127.074537 85.076364 
L 128.4 83.185721 
L 128.603905 82.88 
L 130.664395 80.683636 
L 131.781818 79.796233 
L 133.630945 78.487273 
L 135.163636 77.606812 
L 137.830648 76.290909 
L 138.545455 75.967521 
L 141.927273 74.57298 
L 143.159326 74.094545 
L 145.309091 73.248547 
L 148.690909 71.995613 
L 148.966915 71.898182 
L 152.072727 70.762237 
L 155.341444 69.701818 
L 155.454545 69.663015 
L 158.836364 68.628961 
L 162.218182 67.730509 
L 163.166508 67.505455 
L 165.6 66.892177 
L 168.981818 66.141396 
L 172.363636 65.465147 
L 173.235402 65.309091 
L 175.745455 64.844125 
L 179.127273 64.330199 
L 182.509091 63.982155 
L 185.890909 63.891802 
L 189.272727 64.176037 
L 192.654545 64.944491 
L 193.65509 65.309091 
L 196.036364 66.296045 
L 198.442012 67.505455 
L 199.418182 68.065478 
L 202.8 69.701758 
L 202.800198 69.701818 
L 206.181818 70.676504 
L 209.563636 70.795156 
L 212.945455 70.393284 
L 216.135785 69.701818 
L 216.327273 69.660551 
L 219.709091 68.542046 
L 222.234462 67.505455 
L 223.090909 67.09546 
L 226.465014 65.309091 
L 226.472727 65.304442 
L 229.854545 63.413485 
L 230.550997 63.112727 
L 233.236364 61.944681 
L 236.618182 61.082443 
L 238.053769 60.916364 
L 240 60.683607 
L 243.381818 60.630795 
L 246.763636 60.803223 
L 248.062742 60.916364 
L 250.145455 61.069095 
L 253.527273 61.360226 
L 256.909091 61.67798 
L 260.290909 62.047333 
L 263.672727 62.522105 
L 266.762136 63.112727 
L 267.054545 63.16608 
L 270.436364 63.967331 
L 273.818182 65.038499 
L 274.55046 65.309091 
L 277.2 66.322865 
L 279.954532 67.505455 
L 280.581818 67.789145 
L 283.963636 69.300078 
L 284.886008 69.701818 
L 287.345455 70.748807 
L 290.189537 71.898182 
L 290.727273 72.100196 
L 294.109091 73.346134 
L 295.994232 74.094545 
L 297.490909 74.642924 
L 300.872727 76.09846 
L 301.25986 76.290909 
L 304.254545 77.737659 
L 305.563988 78.487273 
L 307.636364 79.65894 
L 309.255287 80.683636 
L 311.018182 81.80168 
L 312.642365 82.88 
L 314.4 84.075222 
L 315.888906 85.076364 
L 317.781818 86.417208 
L 319.049827 87.272727 
L 321.163636 88.807801 
L 322.131276 89.469091 
L 324.545455 91.266406 
L 325.104635 91.665455 
L 327.86997 93.861818 
L 327.927273 93.913311 
L 330.323402 96.058182 
L 331.309091 97.147607 
L 332.298836 98.254545 
L 333.873016 100.450909 
L 334.690909 101.865801 
L 335.161514 102.647273 
L 336.342584 104.843636 
L 337.441277 107.04 
L 338.072727 108.317763 
L 338.573296 109.236364 
L 339.738312 111.432727 
L 340.807398 113.629091 
L 341.454545 115.186993 
L 341.741116 115.825455 
L 342.456551 118.021818 
L 342.876819 120.218182 
L 342.991828 122.414545 
L 342.828949 124.610909 
L 342.499921 126.807273 
L 342.257669 129.003636 
L 342.469584 131.2 
L 343.392912 133.396364 
L 344.836364 135.474529 
L 344.895087 135.592727 
L 346.250113 137.789091 
L 347.591404 139.985455 
L 348.218182 141.136998 
L 348.712052 142.181818 
L 349.557614 144.378182 
L 350.146016 146.574545 
L 350.477927 148.770909 
L 350.555376 150.967273 
L 350.361986 153.163636 
L 349.860893 155.36 
L 349.014231 157.556364 
L 348.218182 159.044039 
L 347.726969 159.752727 
L 345.922746 161.949091 
L 344.836364 163.217422 
L 343.721779 164.145455 
L 341.638953 166.341818 
L 341.454545 166.59637 
L 339.819991 168.538182 
L 338.811903 170.734545 
L 338.072727 172.827839 
L 338.035926 172.930909 
L 337.135656 175.127273 
L 336.171257 177.323636 
L 335.091906 179.52 
L 334.690909 180.242961 
L 333.824241 181.716364 
L 332.496866 183.912727 
L 331.309091 185.846526 
L 331.131364 186.109091 
L 329.625854 188.305455 
L 328.10707 190.501818 
L 327.927273 190.734664 
L 326.366925 192.698182 
L 324.545455 194.854004 
L 324.509692 194.894545 
L 322.355199 197.090909 
L 321.163636 198.206557 
L 319.947285 199.287273 
L 317.781818 201.075604 
L 317.243214 201.483636 
L 314.4 203.497564 
L 314.113062 203.68 
L 311.018182 205.525066 
L 310.368912 205.876364 
L 307.636364 207.276185 
L 306.018981 208.072727 
L 304.254545 208.909451 
L 301.512197 210.269091 
L 300.872727 210.578022 
L 297.490909 212.39222 
L 297.375688 212.465455 
L 294.109091 214.398185 
L 293.73018 214.661818 
L 290.727273 216.571643 
L 290.321705 216.858182 
L 287.345455 218.77133 
L 286.91954 219.054545 
L 283.963636 220.859106 
L 283.292015 221.250909 
L 280.581818 222.727133 
L 279.072405 223.447273 
L 277.2 224.301536 
L 273.818182 225.53715 
L 273.44583 225.643636 
L 270.436364 226.495017 
L 267.054545 227.182966 
L 263.672727 227.691298 
L 262.477837 227.84 
L 260.290909 228.121432 
L 256.909091 228.53167 
L 253.527273 228.957587 
L 250.145455 229.403507 
L 246.763636 229.848835 
L 245.25825 230.036364 
L 243.381818 230.284474 
L 240 230.672319 
L 236.618182 230.988441 
L 233.236364 231.230357 
L 229.854545 231.392697 
L 226.472727 231.466491 
L 223.090909 231.444573 
L 219.709091 231.327457 
L 216.327273 231.125172 
L 212.945455 230.855674 
L 209.563636 230.543519 
L 206.181818 230.219823 
z
M 103.257605 181.716364 
L 101.345455 180.812656 
L 99.441454 179.52 
L 97.963636 178.322075 
L 96.95561 177.323636 
L 95.174939 175.127273 
L 94.581818 174.178172 
L 93.851744 172.930909 
L 92.951604 170.734545 
L 92.41993 168.538182 
L 92.221555 166.341818 
L 92.332241 164.145455 
L 92.745401 161.949091 
L 93.49456 159.752727 
L 94.581818 157.73209 
L 94.732771 157.556364 
L 97.68808 155.36 
L 97.963636 155.219982 
L 101.345455 154.793778 
L 104.727273 155.220346 
L 105.201764 155.36 
L 108.109091 156.135084 
L 111.490909 157.512143 
L 111.574558 157.556364 
L 114.872727 159.489489 
L 115.247069 159.752727 
L 117.904968 161.949091 
L 118.254545 162.290264 
L 120.124701 164.145455 
L 121.636364 165.812432 
L 122.181706 166.341818 
L 124.351397 168.538182 
L 125.018182 169.274316 
L 126.640318 170.734545 
L 128.4 172.875608 
L 128.453993 172.930909 
L 129.327393 175.127273 
L 128.622291 177.323636 
L 128.4 177.525074 
L 126.178737 179.52 
L 125.018182 180.106089 
L 121.636364 181.613573 
L 121.35073 181.716364 
L 118.254545 182.57937 
L 114.872727 183.182266 
L 111.490909 183.38678 
L 108.109091 183.133218 
L 104.727273 182.332104 
z
" style="fill:#eef5fc;"/>
    <path clip-path="url(#p80dea5fbdf)" d="M 321.163636 134.911087 
L 324.545455 134.941004 
L 327.927273 133.717747 
L 328.555317 133.396364 
L 329.369844 131.2 
L 327.927273 130.203917 
L 324.545455 129.105304 
L 321.163636 129.4789 
L 317.781818 131.193843 
L 317.77551 131.2 
L 317.781818 131.307202 
L 318.044591 133.396364 
z
" style="fill:#eef5fc;"/>
   </g>
   <g id="PathCollection_2">
    <path clip-path="url(#p80dea5fbdf)" d="M 206.181818 230.219823 
L 209.563636 230.543519 
L 212.945455 230.855674 
L 216.327273 231.125172 
L 219.709091 231.327457 
L 223.090909 231.444573 
L 226.472727 231.466491 
L 229.854545 231.392697 
L 233.236364 231.230357 
L 236.618182 230.988441 
L 240 230.672319 
L 243.381818 230.284474 
L 245.25825 230.036364 
L 246.763636 229.848835 
L 250.145455 229.403507 
L 253.527273 228.957587 
L 256.909091 228.53167 
L 260.290909 228.121432 
L 262.477837 227.84 
L 263.672727 227.691298 
L 267.054545 227.182966 
L 270.436364 226.495017 
L 273.44583 225.643636 
L 273.818182 225.53715 
L 277.2 224.301536 
L 279.072405 223.447273 
L 280.581818 222.727133 
L 283.292015 221.250909 
L 283.963636 220.859106 
L 286.91954 219.054545 
L 287.345455 218.77133 
L 290.321705 216.858182 
L 290.727273 216.571643 
L 293.73018 214.661818 
L 294.109091 214.398185 
L 297.375688 212.465455 
L 297.490909 212.39222 
L 300.872727 210.578022 
L 301.512197 210.269091 
L 304.254545 208.909451 
L 306.018981 208.072727 
L 307.636364 207.276185 
L 310.368912 205.876364 
L 311.018182 205.525066 
L 314.113062 203.68 
L 314.4 203.497564 
L 317.243214 201.483636 
L 317.781818 201.075604 
L 319.947285 199.287273 
L 321.163636 198.206557 
L 322.355199 197.090909 
L 324.509692 194.894545 
L 324.545455 194.854004 
L 326.366925 192.698182 
L 327.927273 190.734664 
L 328.10707 190.501818 
L 329.625854 188.305455 
L 331.131364 186.109091 
L 331.309091 185.846526 
L 332.496866 183.912727 
L 333.824241 181.716364 
L 334.690909 180.242961 
L 335.091906 179.52 
L 336.171257 177.323636 
L 337.135656 175.127273 
L 338.035926 172.930909 
L 338.072727 172.827839 
L 338.811903 170.734545 
L 339.819991 168.538182 
L 341.454545 166.59637 
L 341.638953 166.341818 
L 343.721779 164.145455 
L 344.836364 163.217422 
L 345.922746 161.949091 
L 347.726969 159.752727 
L 348.218182 159.044039 
L 349.014231 157.556364 
L 349.860893 155.36 
L 350.361986 153.163636 
L 350.555376 150.967273 
L 350.477927 148.770909 
L 350.146016 146.574545 
L 349.557614 144.378182 
L 348.712052 142.181818 
L 348.218182 141.136998 
L 347.591404 139.985455 
L 346.250113 137.789091 
L 344.895087 135.592727 
L 344.836364 135.474529 
L 343.392912 133.396364 
L 342.469584 131.2 
L 342.257669 129.003636 
L 342.499921 126.807273 
L 342.828949 124.610909 
L 342.991828 122.414545 
L 342.876819 120.218182 
L 342.456551 118.021818 
L 341.741116 115.825455 
L 341.454545 115.186993 
L 340.807398 113.629091 
L 339.738312 111.432727 
L 338.573296 109.236364 
L 338.072727 108.317763 
L 337.441277 107.04 
L 336.342584 104.843636 
L 335.161514 102.647273 
L 334.690909 101.865801 
L 333.873016 100.450909 
L 332.298836 98.254545 
L 331.309091 97.147607 
L 330.323402 96.058182 
L 327.927273 93.913311 
L 327.86997 93.861818 
L 325.104635 91.665455 
L 324.545455 91.266406 
L 322.131276 89.469091 
L 321.163636 88.807801 
L 319.049827 87.272727 
L 317.781818 86.417208 
L 315.888906 85.076364 
L 314.4 84.075222 
L 312.642365 82.88 
L 311.018182 81.80168 
L 309.255287 80.683636 
L 307.636364 79.65894 
L 305.563988 78.487273 
L 304.254545 77.737659 
L 301.25986 76.290909 
L 300.872727 76.09846 
L 297.490909 74.642924 
L 295.994232 74.094545 
L 294.109091 73.346134 
L 290.727273 72.100196 
L 290.189537 71.898182 
L 287.345455 70.748807 
L 284.886008 69.701818 
L 283.963636 69.300078 
L 280.581818 67.789145 
L 279.954532 67.505455 
L 277.2 66.322865 
L 274.55046 65.309091 
L 273.818182 65.038499 
L 270.436364 63.967331 
L 267.054545 63.16608 
L 266.762136 63.112727 
L 263.672727 62.522105 
L 260.290909 62.047333 
L 256.909091 61.67798 
L 253.527273 61.360226 
L 250.145455 61.069095 
L 248.062742 60.916364 
L 246.763636 60.803223 
L 243.381818 60.630795 
L 240 60.683607 
L 238.053769 60.916364 
L 236.618182 61.082443 
L 233.236364 61.944681 
L 230.550997 63.112727 
L 229.854545 63.413485 
L 226.472727 65.304442 
L 226.465014 65.309091 
L 223.090909 67.09546 
L 222.234462 67.505455 
L 219.709091 68.542046 
L 216.327273 69.660551 
L 216.135785 69.701818 
L 212.945455 70.393284 
L 209.563636 70.795156 
L 206.181818 70.676504 
L 202.800198 69.701818 
L 202.8 69.701758 
L 199.418182 68.065478 
L 198.442012 67.505455 
L 196.036364 66.296045 
L 193.65509 65.309091 
L 192.654545 64.944491 
L 189.272727 64.176037 
L 185.890909 63.891802 
L 182.509091 63.982155 
L 179.127273 64.330199 
L 175.745455 64.844125 
L 173.235402 65.309091 
L 172.363636 65.465147 
L 168.981818 66.141396 
L 165.6 66.892177 
L 163.166508 67.505455 
L 162.218182 67.730509 
L 158.836364 68.628961 
L 155.454545 69.663015 
L 155.341444 69.701818 
L 152.072727 70.762237 
L 148.966915 71.898182 
L 148.690909 71.995613 
L 145.309091 73.248547 
L 143.159326 74.094545 
L 141.927273 74.57298 
L 138.545455 75.967521 
L 137.830648 76.290909 
L 135.163636 77.606812 
L 133.630945 78.487273 
L 131.781818 79.796233 
L 130.664395 80.683636 
L 128.603905 82.88 
L 128.4 83.185721 
L 127.074537 85.076364 
L 125.875974 87.272727 
L 125.018182 88.983562 
L 124.713626 89.469091 
L 123.204841 91.665455 
L 121.636364 93.031669 
L 120.47554 93.861818 
L 118.254545 95.006645 
L 116.39192 96.058182 
L 114.872727 96.803269 
L 112.587064 98.254545 
L 111.490909 98.94086 
L 109.579466 100.450909 
L 108.109091 101.690789 
L 107.124823 102.647273 
L 105.079534 104.843636 
L 104.727273 105.251085 
L 103.290268 107.04 
L 101.591919 109.236364 
L 101.345455 109.549455 
L 99.944512 111.432727 
L 98.26759 113.629091 
L 97.963636 114.014482 
L 96.643674 115.825455 
L 95.130247 118.021818 
L 94.581818 118.903506 
L 93.815151 120.218182 
L 92.799176 122.414545 
L 92.083544 124.610909 
L 91.69375 126.807273 
L 91.684023 129.003636 
L 92.176024 131.2 
L 93.439229 133.396364 
L 94.581818 134.527888 
L 97.963636 135.232459 
L 101.345455 134.628446 
L 104.727273 133.470734 
L 104.886129 133.396364 
L 108.109091 132.007023 
L 109.677704 131.2 
L 111.490909 130.247268 
L 113.595071 129.003636 
L 114.872727 128.182336 
L 116.911365 126.807273 
L 118.254545 125.795059 
L 119.825976 124.610909 
L 121.636364 123.048414 
L 122.37002 122.414545 
L 124.437254 120.218182 
L 125.018182 119.399511 
L 125.929255 118.021818 
L 126.835259 115.825455 
L 127.294078 113.629091 
L 127.469199 111.432727 
L 127.521872 109.236364 
L 127.577135 107.04 
L 127.722065 104.843636 
L 128.041307 102.647273 
L 128.4 101.33971 
L 128.68252 100.450909 
L 130.0675 98.254545 
L 131.781818 97.103231 
L 135.163636 96.079969 
L 135.323692 96.058182 
L 138.545455 95.742909 
L 141.927273 95.732967 
L 145.309091 95.983731 
L 145.79696 96.058182 
L 148.690909 96.561035 
L 152.072727 97.463949 
L 154.381695 98.254545 
L 155.454545 98.711927 
L 158.836364 100.144483 
L 159.75012 100.450909 
L 162.218182 101.335676 
L 165.6 101.919091 
L 168.981818 101.996162 
L 172.363636 101.772438 
L 175.745455 101.386752 
L 179.127273 100.899939 
L 181.869055 100.450909 
L 182.509091 100.316828 
L 185.890909 99.541601 
L 189.069917 98.254545 
L 189.272727 97.672321 
L 189.721924 96.058182 
L 189.676519 93.861818 
L 189.802869 91.665455 
L 190.275702 89.469091 
L 191.243721 87.272727 
L 192.654545 85.326549 
L 192.931243 85.076364 
L 196.036364 83.002838 
L 196.578433 82.88 
L 199.418182 82.251927 
L 201.556995 82.88 
L 202.8 83.359426 
L 204.094927 85.076364 
L 204.79623 87.272727 
L 204.542521 89.469091 
L 203.507239 91.665455 
L 202.8 92.620081 
L 201.338565 93.861818 
L 199.418182 95.403116 
L 197.973142 96.058182 
L 196.036364 97.222185 
L 193.263818 98.254545 
L 192.654545 98.942008 
L 191.173484 100.450909 
L 191.59881 102.647273 
L 192.308816 104.843636 
L 192.654545 105.562494 
L 193.139449 107.04 
L 194.241782 109.236364 
L 195.900965 111.432727 
L 196.036364 111.567526 
L 198.307289 113.629091 
L 199.418182 114.34311 
L 202.324167 115.825455 
L 202.8 116.025875 
L 206.181818 117.281163 
L 208.399448 118.021818 
L 209.563636 118.414907 
L 212.945455 119.70228 
L 214.053702 120.218182 
L 216.327273 121.425665 
L 217.790412 122.414545 
L 219.709091 123.994909 
L 220.295227 124.610909 
L 221.82236 126.807273 
L 222.855355 129.003636 
L 223.090909 130.062192 
L 223.294523 131.2 
L 223.297413 133.396364 
L 223.090909 134.803874 
L 222.891539 135.592727 
L 222.003766 137.789091 
L 221.062049 139.985455 
L 220.763411 142.181818 
L 222.093524 144.378182 
L 223.090909 145.037415 
L 225.819611 146.574545 
L 226.472727 146.820968 
L 229.854545 147.895504 
L 233.236364 148.647133 
L 233.885935 148.770909 
L 236.618182 149.26094 
L 240 149.785384 
L 243.381818 150.232554 
L 246.763636 150.604339 
L 250.145455 150.900901 
L 251.089913 150.967273 
L 253.527273 151.210096 
L 256.909091 151.541946 
L 260.290909 151.967848 
L 263.672727 152.602474 
L 265.811295 153.163636 
L 267.054545 153.627317 
L 270.436364 154.975582 
L 271.477281 155.36 
L 273.818182 156.111286 
L 277.2 156.907073 
L 280.581818 157.483014 
L 281.070262 157.556364 
L 283.963636 157.943106 
L 287.345455 158.321189 
L 290.727273 158.562371 
L 294.109091 158.589913 
L 297.490909 158.34746 
L 300.872727 157.822174 
L 302.089139 157.556364 
L 304.254545 157.182357 
L 307.636364 156.55814 
L 311.018182 156.033243 
L 314.4 155.790725 
L 317.781818 156.008524 
L 321.163636 156.772544 
L 323.332609 157.556364 
L 324.545455 158.230491 
L 326.982314 159.752727 
L 327.927273 160.94111 
L 328.886341 161.949091 
L 329.213279 164.145455 
L 327.927273 165.701316 
L 327.375361 166.341818 
L 324.545455 167.85815 
L 323.2116 168.538182 
L 321.163636 169.403735 
L 318.360113 170.734545 
L 317.781818 171.048404 
L 315.086811 172.930909 
L 314.4 173.653855 
L 313.288995 175.127273 
L 312.272739 177.323636 
L 311.449015 179.52 
L 311.018182 180.437972 
L 310.443398 181.716364 
L 308.986503 183.912727 
L 307.636364 185.345538 
L 306.896198 186.109091 
L 304.386438 188.305455 
L 304.254545 188.414489 
L 301.738916 190.501818 
L 300.872727 191.233391 
L 299.077378 192.698182 
L 297.490909 194.001579 
L 296.280719 194.894545 
L 294.109091 196.397782 
L 292.879865 197.090909 
L 290.727273 198.155133 
L 287.587141 199.287273 
L 287.345455 199.361105 
L 283.963636 200.156275 
L 280.581818 200.868092 
L 278.17257 201.483636 
L 277.2 201.687857 
L 273.818182 202.607041 
L 270.667276 203.68 
L 270.436364 203.747687 
L 267.054545 204.821314 
L 263.672727 205.8339 
L 263.496797 205.876364 
L 260.290909 206.551668 
L 256.909091 207.01839 
L 253.527273 207.298271 
L 250.145455 207.495403 
L 246.763636 207.705575 
L 243.381818 207.987811 
L 242.583657 208.072727 
L 240 208.334845 
L 236.618182 208.762291 
L 233.236364 209.302841 
L 229.854545 210.002772 
L 228.794013 210.269091 
L 226.472727 210.820997 
L 223.090909 211.729627 
L 220.48812 212.465455 
L 219.709091 212.67133 
L 216.327273 213.497817 
L 212.945455 214.211017 
L 210.260931 214.661818 
L 209.563636 214.781015 
L 206.181818 215.193305 
L 202.8 215.424428 
L 199.418182 215.448435 
L 196.036364 215.237382 
L 192.654545 214.758142 
L 192.23692 214.661818 
L 189.272727 214.019078 
L 185.890909 212.946042 
L 184.790529 212.465455 
L 182.509091 211.439999 
L 180.478169 210.269091 
L 179.127273 209.438238 
L 177.212114 208.072727 
L 175.745455 206.964572 
L 174.366882 205.876364 
L 172.363636 204.23392 
L 171.643005 203.68 
L 168.981818 201.579117 
L 168.835809 201.483636 
L 165.6 199.315893 
L 165.538514 199.287273 
L 162.218182 197.698606 
L 159.616304 197.090909 
L 158.836364 196.898793 
L 155.454545 196.837581 
L 154.300439 197.090909 
L 152.072727 197.562556 
L 148.690909 199.214058 
L 148.592073 199.287273 
L 145.964202 201.483636 
L 145.309091 202.188406 
L 144.151023 203.68 
L 142.979909 205.876364 
L 142.407844 208.072727 
L 142.517145 210.269091 
L 143.460519 212.465455 
L 145.309091 214.498899 
L 145.477081 214.661818 
L 148.690909 216.785163 
L 148.817735 216.858182 
L 152.072727 218.425651 
L 153.526598 219.054545 
L 155.454545 219.841303 
L 158.836364 221.123138 
L 159.188677 221.250909 
L 162.218182 222.360711 
L 165.381368 223.447273 
L 165.6 223.524979 
L 168.981818 224.638052 
L 172.301607 225.643636 
L 172.363636 225.662755 
L 175.745455 226.581139 
L 179.127273 227.371847 
L 181.474884 227.84 
L 182.509091 228.0424 
L 185.890909 228.551702 
L 189.272727 228.924773 
L 192.654545 229.194405 
L 196.036364 229.411558 
L 199.418182 229.635487 
L 202.8 229.908624 
L 204.101109 230.036364 
z
M 239.161715 221.250909 
L 237.518043 219.054545 
L 240 218.008089 
L 242.628065 216.858182 
L 243.381818 216.700032 
L 246.763636 216.297681 
L 250.145455 216.254853 
L 253.527273 216.577855 
L 255.317263 216.858182 
L 254.561242 219.054545 
L 253.527273 219.315995 
L 250.145455 220.213547 
L 246.763636 221.048675 
L 245.373778 221.250909 
L 243.381818 221.396588 
L 240 221.345671 
z
M 290.577515 148.770909 
L 287.387413 146.574545 
L 287.345455 146.543976 
L 283.963636 144.745637 
L 282.331274 144.378182 
L 280.581818 144.15047 
L 277.2 144.162056 
L 273.818182 144.370216 
L 273.722197 144.378182 
L 270.436364 144.688967 
L 267.054545 144.962643 
L 263.672727 145.170565 
L 260.290909 145.305431 
L 256.909091 145.34675 
L 253.527273 145.254971 
L 250.145455 144.973959 
L 246.763636 144.433859 
L 246.52113 144.378182 
L 243.381818 143.657002 
L 240 142.420727 
L 239.48504 142.181818 
L 236.618182 140.527184 
L 235.884411 139.985455 
L 233.734144 137.789091 
L 233.236364 137.065253 
L 232.30471 135.592727 
L 231.282695 133.396364 
L 230.473918 131.2 
L 229.854545 129.455822 
L 229.678015 129.003636 
L 228.667785 126.807273 
L 227.444134 124.610909 
L 226.472727 123.216679 
L 225.809823 122.414545 
L 223.648845 120.218182 
L 223.090909 119.71455 
L 220.796701 118.021818 
L 219.709091 117.276206 
L 217.091301 115.825455 
L 216.327273 115.411285 
L 212.945455 113.822327 
L 212.509127 113.629091 
L 209.563636 112.132258 
L 208.307013 111.432727 
L 206.181818 109.771148 
L 205.571795 109.236364 
L 204.132701 107.04 
L 203.730777 104.843636 
L 204.17562 102.647273 
L 205.345862 100.450909 
L 206.181818 99.402442 
L 206.936162 98.254545 
L 208.586955 96.058182 
L 209.563636 94.766263 
L 210.136238 93.861818 
L 211.358638 91.665455 
L 212.352275 89.469091 
L 212.945455 87.681394 
L 213.075068 87.272727 
L 213.540045 85.076364 
L 213.960393 82.88 
L 214.632952 80.683636 
L 216.109122 78.487273 
L 216.327273 78.296837 
L 219.038883 76.290909 
L 219.709091 75.946961 
L 223.090909 74.355635 
L 223.685217 74.094545 
L 226.472727 72.913375 
L 228.936252 71.898182 
L 229.854545 71.496277 
L 233.236364 70.135711 
L 234.551473 69.701818 
L 236.618182 68.990506 
L 240 68.206201 
L 243.381818 67.780379 
L 246.763636 67.624151 
L 250.145455 67.657329 
L 253.527273 67.836607 
L 256.909091 68.164295 
L 260.290909 68.684122 
L 263.672727 69.465055 
L 264.443057 69.701818 
L 267.054545 70.713641 
L 269.495556 71.898182 
L 270.436364 72.580977 
L 272.501452 74.094545 
L 273.818182 75.792535 
L 274.330027 76.290909 
L 275.09841 78.487273 
L 273.818182 79.852484 
L 273.128414 80.683636 
L 270.436364 81.950131 
L 269.216753 82.88 
L 267.054545 84.431016 
L 266.533538 85.076364 
L 265.675748 87.272727 
L 266.256341 89.469091 
L 267.054545 90.224003 
L 270.190914 91.665455 
L 270.436364 91.724212 
L 271.349256 91.665455 
L 273.818182 91.358288 
L 277.034323 89.469091 
L 277.2 89.261824 
L 278.416047 87.272727 
L 279.141362 85.076364 
L 279.757319 82.88 
L 280.581818 81.845223 
L 282.859998 80.683636 
L 283.963636 80.482324 
L 287.345455 80.257427 
L 290.727273 80.466865 
L 291.876008 80.683636 
L 294.109091 81.032083 
L 297.490909 81.947915 
L 299.838121 82.88 
L 300.872727 83.266055 
L 304.254545 84.966473 
L 304.439408 85.076364 
L 307.636364 87.054709 
L 307.955604 87.272727 
L 310.886672 89.469091 
L 311.018182 89.581015 
L 313.482764 91.665455 
L 314.4 92.574196 
L 315.811054 93.861818 
L 317.781818 95.935317 
L 317.912699 96.058182 
L 320.02542 98.254545 
L 321.163636 99.611643 
L 321.918847 100.450909 
L 323.607072 102.647273 
L 324.545455 104.140422 
L 325.003048 104.843636 
L 326.183333 107.04 
L 327.085589 109.236364 
L 327.699943 111.432727 
L 327.927273 113.492427 
L 327.945499 113.629091 
L 327.927273 113.751408 
L 327.61808 115.825455 
L 326.302345 118.021818 
L 324.545455 119.353474 
L 323.294536 120.218182 
L 321.163636 121.191891 
L 318.322221 122.414545 
L 317.781818 122.612011 
L 314.4 123.973841 
L 312.929921 124.610909 
L 311.018182 125.545296 
L 308.817093 126.807273 
L 307.636364 127.801413 
L 306.432026 129.003636 
L 305.388049 131.2 
L 305.394907 133.396364 
L 306.318204 135.592727 
L 307.636364 137.297435 
L 308.055541 137.789091 
L 310.248219 139.985455 
L 311.018182 140.821119 
L 312.566026 142.181818 
L 314.162921 144.378182 
L 313.847053 146.574545 
L 311.018182 148.173729 
L 309.808997 148.770909 
L 307.636364 149.399543 
L 304.254545 150.17757 
L 300.872727 150.627646 
L 297.490909 150.651897 
L 294.109091 150.113338 
L 290.727273 148.847514 
z
M 318.044591 133.396364 
L 317.781818 131.307202 
L 317.77551 131.2 
L 317.781818 131.193843 
L 321.163636 129.4789 
L 324.545455 129.105304 
L 327.927273 130.203917 
L 329.369844 131.2 
L 328.555317 133.396364 
L 327.927273 133.717747 
L 324.545455 134.941004 
L 321.163636 134.911087 
z
M 161.08359 89.469091 
L 158.836364 89.115264 
L 155.454545 88.559567 
L 152.072727 87.957846 
L 148.969821 87.272727 
L 148.690909 87.148446 
L 145.76062 85.076364 
L 146.667863 82.88 
L 148.690909 81.560291 
L 150.13701 80.683636 
L 152.072727 79.912708 
L 155.454545 78.66613 
L 156.043229 78.487273 
L 158.836364 77.814135 
L 162.218182 77.179247 
L 165.6 76.722398 
L 168.981818 76.451062 
L 172.363636 76.427959 
L 175.745455 76.963975 
L 178.094769 78.487273 
L 178.396942 80.683636 
L 177.709177 82.88 
L 176.684425 85.076364 
L 175.745455 86.696301 
L 175.234137 87.272727 
L 172.380106 89.469091 
L 172.363636 89.477778 
L 168.981818 90.118358 
L 165.6 90.018348 
L 162.218182 89.630551 
z
" style="fill:#dceaf6;"/>
    <path clip-path="url(#p80dea5fbdf)" d="M 104.727273 182.332104 
L 108.109091 183.133218 
L 111.490909 183.38678 
L 114.872727 183.182266 
L 118.254545 182.57937 
L 121.35073 181.716364 
L 121.636364 181.613573 
L 125.018182 180.106089 
L 126.178737 179.52 
L 128.4 177.525074 
L 128.622291 177.323636 
L 129.327393 175.127273 
L 128.453993 172.930909 
L 128.4 172.875608 
L 126.640318 170.734545 
L 125.018182 169.274316 
L 124.351397 168.538182 
L 122.181706 166.341818 
L 121.636364 165.812432 
L 120.124701 164.145455 
L 118.254545 162.290264 
L 117.904968 161.949091 
L 115.247069 159.752727 
L 114.872727 159.489489 
L 111.574558 157.556364 
L 111.490909 157.512143 
L 108.109091 156.135084 
L 105.201764 155.36 
L 104.727273 155.220346 
L 101.345455 154.793778 
L 97.963636 155.219982 
L 97.68808 155.36 
L 94.732771 157.556364 
L 94.581818 157.73209 
L 93.49456 159.752727 
L 92.745401 161.949091 
L 92.332241 164.145455 
L 92.221555 166.341818 
L 92.41993 168.538182 
L 92.951604 170.734545 
L 93.851744 172.930909 
L 94.581818 174.178172 
L 95.174939 175.127273 
L 96.95561 177.323636 
L 97.963636 178.322075 
L 99.441454 179.52 
L 101.345455 180.812656 
L 103.257605 181.716364 
z
" style="fill:#dceaf6;"/>
   </g>
   <g id="PathCollection_3">
    <path clip-path="url(#p80dea5fbdf)" d="M 240 221.345671 
L 243.381818 221.396588 
L 245.373778 221.250909 
L 246.763636 221.048675 
L 250.145455 220.213547 
L 253.527273 219.315995 
L 254.561242 219.054545 
L 255.317263 216.858182 
L 253.527273 216.577855 
L 250.145455 216.254853 
L 246.763636 216.297681 
L 243.381818 216.700032 
L 242.628065 216.858182 
L 240 218.008089 
L 237.518043 219.054545 
L 239.161715 221.250909 
z
" style="fill:#cadef0;"/>
    <path clip-path="url(#p80dea5fbdf)" d="M 290.727273 148.847514 
L 294.109091 150.113338 
L 297.490909 150.651897 
L 300.872727 150.627646 
L 304.254545 150.17757 
L 307.636364 149.399543 
L 309.808997 148.770909 
L 311.018182 148.173729 
L 313.847053 146.574545 
L 314.162921 144.378182 
L 312.566026 142.181818 
L 311.018182 140.821119 
L 310.248219 139.985455 
L 308.055541 137.789091 
L 307.636364 137.297435 
L 306.318204 135.592727 
L 305.394907 133.396364 
L 305.388049 131.2 
L 306.432026 129.003636 
L 307.636364 127.801413 
L 308.817093 126.807273 
L 311.018182 125.545296 
L 312.929921 124.610909 
L 314.4 123.973841 
L 317.781818 122.612011 
L 318.322221 122.414545 
L 321.163636 121.191891 
L 323.294536 120.218182 
L 324.545455 119.353474 
L 326.302345 118.021818 
L 327.61808 115.825455 
L 327.927273 113.751408 
L 327.945499 113.629091 
L 327.927273 113.492427 
L 327.699943 111.432727 
L 327.085589 109.236364 
L 326.183333 107.04 
L 325.003048 104.843636 
L 324.545455 104.140422 
L 323.607072 102.647273 
L 321.918847 100.450909 
L 321.163636 99.611643 
L 320.02542 98.254545 
L 317.912699 96.058182 
L 317.781818 95.935317 
L 315.811054 93.861818 
L 314.4 92.574196 
L 313.482764 91.665455 
L 311.018182 89.581015 
L 310.886672 89.469091 
L 307.955604 87.272727 
L 307.636364 87.054709 
L 304.439408 85.076364 
L 304.254545 84.966473 
L 300.872727 83.266055 
L 299.838121 82.88 
L 297.490909 81.947915 
L 294.109091 81.032083 
L 291.876008 80.683636 
L 290.727273 80.466865 
L 287.345455 80.257427 
L 283.963636 80.482324 
L 282.859998 80.683636 
L 280.581818 81.845223 
L 279.757319 82.88 
L 279.141362 85.076364 
L 278.416047 87.272727 
L 277.2 89.261824 
L 277.034323 89.469091 
L 273.818182 91.358288 
L 271.349256 91.665455 
L 270.436364 91.724212 
L 270.190914 91.665455 
L 267.054545 90.224003 
L 266.256341 89.469091 
L 265.675748 87.272727 
L 266.533538 85.076364 
L 267.054545 84.431016 
L 269.216753 82.88 
L 270.436364 81.950131 
L 273.128414 80.683636 
L 273.818182 79.852484 
L 275.09841 78.487273 
L 274.330027 76.290909 
L 273.818182 75.792535 
L 272.501452 74.094545 
L 270.436364 72.580977 
L 269.495556 71.898182 
L 267.054545 70.713641 
L 264.443057 69.701818 
L 263.672727 69.465055 
L 260.290909 68.684122 
L 256.909091 68.164295 
L 253.527273 67.836607 
L 250.145455 67.657329 
L 246.763636 67.624151 
L 243.381818 67.780379 
L 240 68.206201 
L 236.618182 68.990506 
L 234.551473 69.701818 
L 233.236364 70.135711 
L 229.854545 71.496277 
L 228.936252 71.898182 
L 226.472727 72.913375 
L 223.685217 74.094545 
L 223.090909 74.355635 
L 219.709091 75.946961 
L 219.038883 76.290909 
L 216.327273 78.296837 
L 216.109122 78.487273 
L 214.632952 80.683636 
L 213.960393 82.88 
L 213.540045 85.076364 
L 213.075068 87.272727 
L 212.945455 87.681394 
L 212.352275 89.469091 
L 211.358638 91.665455 
L 210.136238 93.861818 
L 209.563636 94.766263 
L 208.586955 96.058182 
L 206.936162 98.254545 
L 206.181818 99.402442 
L 205.345862 100.450909 
L 204.17562 102.647273 
L 203.730777 104.843636 
L 204.132701 107.04 
L 205.571795 109.236364 
L 206.181818 109.771148 
L 208.307013 111.432727 
L 209.563636 112.132258 
L 212.509127 113.629091 
L 212.945455 113.822327 
L 216.327273 115.411285 
L 217.091301 115.825455 
L 219.709091 117.276206 
L 220.796701 118.021818 
L 223.090909 119.71455 
L 223.648845 120.218182 
L 225.809823 122.414545 
L 226.472727 123.216679 
L 227.444134 124.610909 
L 228.667785 126.807273 
L 229.678015 129.003636 
L 229.854545 129.455822 
L 230.473918 131.2 
L 231.282695 133.396364 
L 232.30471 135.592727 
L 233.236364 137.065253 
L 233.734144 137.789091 
L 235.884411 139.985455 
L 236.618182 140.527184 
L 239.48504 142.181818 
L 240 142.420727 
L 243.381818 143.657002 
L 246.52113 144.378182 
L 246.763636 144.433859 
L 250.145455 144.973959 
L 253.527273 145.254971 
L 256.909091 145.34675 
L 260.290909 145.305431 
L 263.672727 145.170565 
L 267.054545 144.962643 
L 270.436364 144.688967 
L 273.722197 144.378182 
L 273.818182 144.370216 
L 277.2 144.162056 
L 280.581818 144.15047 
L 282.331274 144.378182 
L 283.963636 144.745637 
L 287.345455 146.543976 
L 287.387413 146.574545 
L 290.577515 148.770909 
z
M 245.780127 139.985455 
L 243.381818 138.988578 
L 241.346994 137.789091 
L 240 136.789647 
L 238.689507 135.592727 
L 236.922707 133.396364 
L 236.618182 132.910434 
L 235.604584 131.2 
L 234.558838 129.003636 
L 233.604089 126.807273 
L 233.236364 126.025248 
L 232.50859 124.610909 
L 231.173592 122.414545 
L 229.854545 120.574897 
L 229.560131 120.218182 
L 227.568499 118.021818 
L 226.472727 116.854814 
L 225.288234 115.825455 
L 223.090909 113.965343 
L 222.584468 113.629091 
L 219.709091 111.738931 
L 219.152886 111.432727 
L 216.327273 109.730732 
L 215.523039 109.236364 
L 212.945455 107.040831 
L 212.94462 107.04 
L 211.783177 104.843636 
L 211.653853 102.647273 
L 212.239584 100.450909 
L 212.945455 98.966541 
L 213.251426 98.254545 
L 214.417071 96.058182 
L 215.616042 93.861818 
L 216.327273 92.532673 
L 216.790096 91.665455 
L 217.901018 89.469091 
L 218.985534 87.272727 
L 219.709091 85.852033 
L 220.180863 85.076364 
L 221.735318 82.88 
L 223.090909 81.469918 
L 224.078168 80.683636 
L 226.472727 79.167183 
L 227.840919 78.487273 
L 229.854545 77.58084 
L 233.236364 76.295844 
L 233.252171 76.290909 
L 236.618182 75.228033 
L 240 74.403385 
L 241.966629 74.094545 
L 243.381818 73.875016 
L 246.763636 73.681437 
L 250.145455 73.82109 
L 252.024046 74.094545 
L 253.527273 74.404771 
L 256.909091 75.869187 
L 257.51771 76.290909 
L 258.667466 78.487273 
L 258.540913 80.683636 
L 258.111752 82.88 
L 257.924839 85.076364 
L 258.241666 87.272727 
L 259.192027 89.469091 
L 260.290909 90.848354 
L 261.000515 91.665455 
L 263.672727 93.563078 
L 264.248546 93.861818 
L 267.054545 94.847146 
L 270.436364 95.43272 
L 273.818182 95.368732 
L 277.2 94.663924 
L 279.373703 93.861818 
L 280.581818 93.20627 
L 283.018011 91.665455 
L 283.963636 90.856758 
L 285.896256 89.469091 
L 287.345455 88.363897 
L 290.011084 87.272727 
L 290.727273 87.009024 
L 294.109091 86.763812 
L 297.012098 87.272727 
L 297.490909 87.351757 
L 300.872727 88.628106 
L 302.386251 89.469091 
L 304.254545 90.617941 
L 305.642019 91.665455 
L 307.636364 93.444007 
L 308.076108 93.861818 
L 310.059865 96.058182 
L 311.018182 97.278307 
L 311.828541 98.254545 
L 313.50472 100.450909 
L 314.4 101.7026 
L 315.129713 102.647273 
L 316.647694 104.843636 
L 317.781818 106.86956 
L 317.882104 107.04 
L 318.799202 109.236364 
L 319.201679 111.432727 
L 318.946221 113.629091 
L 317.781818 115.806673 
L 317.771791 115.825455 
L 315.501259 118.021818 
L 314.4 118.707674 
L 311.885386 120.218182 
L 311.018182 120.642722 
L 307.636364 122.337179 
L 307.494171 122.414545 
L 304.254545 124.229368 
L 303.653829 124.610909 
L 300.872727 126.729503 
L 300.77929 126.807273 
L 298.781919 129.003636 
L 297.490909 130.817341 
L 297.176711 131.2 
L 295.578782 133.396364 
L 294.109091 134.938337 
L 292.954694 135.592727 
L 290.727273 136.50022 
L 287.345455 137.204419 
L 283.963636 137.767053 
L 283.857078 137.789091 
L 280.581818 138.449448 
L 277.2 139.180442 
L 273.818182 139.919449 
L 273.511228 139.985455 
L 270.436364 140.61813 
L 267.054545 141.164568 
L 263.672727 141.55003 
L 260.290909 141.772503 
L 256.909091 141.817112 
L 253.527273 141.646309 
L 250.145455 141.192707 
L 246.763636 140.347502 
z
" style="fill:#cadef0;"/>
    <path clip-path="url(#p80dea5fbdf)" d="M 162.218182 89.630551 
L 165.6 90.018348 
L 168.981818 90.118358 
L 172.363636 89.477778 
L 172.380106 89.469091 
L 175.234137 87.272727 
L 175.745455 86.696301 
L 176.684425 85.076364 
L 177.709177 82.88 
L 178.396942 80.683636 
L 178.094769 78.487273 
L 175.745455 76.963975 
L 172.363636 76.427959 
L 168.981818 76.451062 
L 165.6 76.722398 
L 162.218182 77.179247 
L 158.836364 77.814135 
L 156.043229 78.487273 
L 155.454545 78.66613 
L 152.072727 79.912708 
L 150.13701 80.683636 
L 148.690909 81.560291 
L 146.667863 82.88 
L 145.76062 85.076364 
L 148.690909 87.148446 
L 148.969821 87.272727 
L 152.072727 87.957846 
L 155.454545 88.559567 
L 158.836364 89.115264 
L 161.08359 89.469091 
z
" style="fill:#cadef0;"/>
   </g>
   <g id="PathCollection_4">
    <path clip-path="url(#p80dea5fbdf)" d="M 246.763636 140.347502 
L 250.145455 141.192707 
L 253.527273 141.646309 
L 256.909091 141.817112 
L 260.290909 141.772503 
L 263.672727 141.55003 
L 267.054545 141.164568 
L 270.436364 140.61813 
L 273.511228 139.985455 
L 273.818182 139.919449 
L 277.2 139.180442 
L 280.581818 138.449448 
L 283.857078 137.789091 
L 283.963636 137.767053 
L 287.345455 137.204419 
L 290.727273 136.50022 
L 292.954694 135.592727 
L 294.109091 134.938337 
L 295.578782 133.396364 
L 297.176711 131.2 
L 297.490909 130.817341 
L 298.781919 129.003636 
L 300.77929 126.807273 
L 300.872727 126.729503 
L 303.653829 124.610909 
L 304.254545 124.229368 
L 307.494171 122.414545 
L 307.636364 122.337179 
L 311.018182 120.642722 
L 311.885386 120.218182 
L 314.4 118.707674 
L 315.501259 118.021818 
L 317.771791 115.825455 
L 317.781818 115.806673 
L 318.946221 113.629091 
L 319.201679 111.432727 
L 318.799202 109.236364 
L 317.882104 107.04 
L 317.781818 106.86956 
L 316.647694 104.843636 
L 315.129713 102.647273 
L 314.4 101.7026 
L 313.50472 100.450909 
L 311.828541 98.254545 
L 311.018182 97.278307 
L 310.059865 96.058182 
L 308.076108 93.861818 
L 307.636364 93.444007 
L 305.642019 91.665455 
L 304.254545 90.617941 
L 302.386251 89.469091 
L 300.872727 88.628106 
L 297.490909 87.351757 
L 297.012098 87.272727 
L 294.109091 86.763812 
L 290.727273 87.009024 
L 290.011084 87.272727 
L 287.345455 88.363897 
L 285.896256 89.469091 
L 283.963636 90.856758 
L 283.018011 91.665455 
L 280.581818 93.20627 
L 279.373703 93.861818 
L 277.2 94.663924 
L 273.818182 95.368732 
L 270.436364 95.43272 
L 267.054545 94.847146 
L 264.248546 93.861818 
L 263.672727 93.563078 
L 261.000515 91.665455 
L 260.290909 90.848354 
L 259.192027 89.469091 
L 258.241666 87.272727 
L 257.924839 85.076364 
L 258.111752 82.88 
L 258.540913 80.683636 
L 258.667466 78.487273 
L 257.51771 76.290909 
L 256.909091 75.869187 
L 253.527273 74.404771 
L 252.024046 74.094545 
L 250.145455 73.82109 
L 246.763636 73.681437 
L 243.381818 73.875016 
L 241.966629 74.094545 
L 240 74.403385 
L 236.618182 75.228033 
L 233.252171 76.290909 
L 233.236364 76.295844 
L 229.854545 77.58084 
L 227.840919 78.487273 
L 226.472727 79.167183 
L 224.078168 80.683636 
L 223.090909 81.469918 
L 221.735318 82.88 
L 220.180863 85.076364 
L 219.709091 85.852033 
L 218.985534 87.272727 
L 217.901018 89.469091 
L 216.790096 91.665455 
L 216.327273 92.532673 
L 215.616042 93.861818 
L 214.417071 96.058182 
L 213.251426 98.254545 
L 212.945455 98.966541 
L 212.239584 100.450909 
L 211.653853 102.647273 
L 211.783177 104.843636 
L 212.94462 107.04 
L 212.945455 107.040831 
L 215.523039 109.236364 
L 216.327273 109.730732 
L 219.152886 111.432727 
L 219.709091 111.738931 
L 222.584468 113.629091 
L 223.090909 113.965343 
L 225.288234 115.825455 
L 226.472727 116.854814 
L 227.568499 118.021818 
L 229.560131 120.218182 
L 229.854545 120.574897 
L 231.173592 122.414545 
L 232.50859 124.610909 
L 233.236364 126.025248 
L 233.604089 126.807273 
L 234.558838 129.003636 
L 235.604584 131.2 
L 236.618182 132.910434 
L 236.922707 133.396364 
L 238.689507 135.592727 
L 240 136.789647 
L 241.346994 137.789091 
L 243.381818 138.988578 
L 245.780127 139.985455 
z
M 249.753235 137.789091 
L 246.763636 136.678462 
L 244.813185 135.592727 
L 243.381818 134.591703 
L 242.046412 133.396364 
L 240.228783 131.2 
L 240 130.841906 
L 238.930265 129.003636 
L 237.882969 126.807273 
L 236.874553 124.610909 
L 236.618182 124.106578 
L 235.711788 122.414545 
L 234.343864 120.218182 
L 233.236364 118.576056 
L 232.815524 118.021818 
L 231.176945 115.825455 
L 229.854545 113.87724 
L 229.644319 113.629091 
L 227.963059 111.432727 
L 226.472727 109.544063 
L 226.130989 109.236364 
L 223.581928 107.04 
L 223.090909 106.61818 
L 220.984322 104.843636 
L 219.709091 103.175333 
L 219.406089 102.647273 
L 218.984241 100.450909 
L 219.246084 98.254545 
L 219.709091 96.811876 
L 219.95308 96.058182 
L 220.99015 93.861818 
L 222.205411 91.665455 
L 223.090909 90.240796 
L 223.670362 89.469091 
L 225.528064 87.272727 
L 226.472727 86.293876 
L 228.088809 85.076364 
L 229.854545 83.905484 
L 232.105404 82.88 
L 233.236364 82.39598 
L 236.618182 81.425923 
L 240 80.908316 
L 243.381818 80.939042 
L 246.763636 81.863634 
L 248.197431 82.88 
L 250.145455 84.680966 
L 250.400394 85.076364 
L 251.940111 87.272727 
L 253.527273 89.221928 
L 253.687555 89.469091 
L 255.708056 91.665455 
L 256.909091 92.608298 
L 258.479677 93.861818 
L 260.290909 94.89851 
L 262.657757 96.058182 
L 263.672727 96.434296 
L 267.054545 97.333821 
L 270.436364 97.812671 
L 273.818182 97.858444 
L 277.2 97.475506 
L 280.581818 96.685981 
L 282.550548 96.058182 
L 283.963636 95.441706 
L 287.345455 93.919339 
L 287.513401 93.861818 
L 290.727273 92.536405 
L 294.109091 92.018014 
L 297.490909 92.552296 
L 300.269834 93.861818 
L 300.872727 94.1946 
L 303.09892 96.058182 
L 304.254545 97.222593 
L 305.132618 98.254545 
L 306.804666 100.450909 
L 307.636364 101.624012 
L 308.36259 102.647273 
L 309.822245 104.843636 
L 311.018182 106.96738 
L 311.060826 107.04 
L 311.956634 109.236364 
L 312.251527 111.432727 
L 311.745813 113.629091 
L 311.018182 114.69147 
L 310.240363 115.825455 
L 307.636364 117.963808 
L 307.56686 118.021818 
L 304.254545 120.088698 
L 304.061166 120.218182 
L 300.872727 122.160038 
L 300.493546 122.414545 
L 297.490909 124.525446 
L 297.373816 124.610909 
L 294.707461 126.807273 
L 294.109091 127.367843 
L 292.068919 129.003636 
L 290.727273 130.069593 
L 288.75494 131.2 
L 287.345455 131.93162 
L 283.963636 133.148222 
L 283.101421 133.396364 
L 280.581818 134.094107 
L 277.2 135.012794 
L 275.339924 135.592727 
L 273.818182 136.017201 
L 270.436364 136.985301 
L 267.383224 137.789091 
L 267.054545 137.861357 
L 263.672727 138.446165 
L 260.290909 138.786415 
L 256.909091 138.848784 
L 253.527273 138.586146 
L 250.145455 137.91638 
z
" style="fill:#b0d2e7;"/>
   </g>
   <g id="PathCollection_5">
    <path clip-path="url(#p80dea5fbdf)" d="M 250.145455 137.91638 
L 253.527273 138.586146 
L 256.909091 138.848784 
L 260.290909 138.786415 
L 263.672727 138.446165 
L 267.054545 137.861357 
L 267.383224 137.789091 
L 270.436364 136.985301 
L 273.818182 136.017201 
L 275.339924 135.592727 
L 277.2 135.012794 
L 280.581818 134.094107 
L 283.101421 133.396364 
L 283.963636 133.148222 
L 287.345455 131.93162 
L 288.75494 131.2 
L 290.727273 130.069593 
L 292.068919 129.003636 
L 294.109091 127.367843 
L 294.707461 126.807273 
L 297.373816 124.610909 
L 297.490909 124.525446 
L 300.493546 122.414545 
L 300.872727 122.160038 
L 304.061166 120.218182 
L 304.254545 120.088698 
L 307.56686 118.021818 
L 307.636364 117.963808 
L 310.240363 115.825455 
L 311.018182 114.69147 
L 311.745813 113.629091 
L 312.251527 111.432727 
L 311.956634 109.236364 
L 311.060826 107.04 
L 311.018182 106.96738 
L 309.822245 104.843636 
L 308.36259 102.647273 
L 307.636364 101.624012 
L 306.804666 100.450909 
L 305.132618 98.254545 
L 304.254545 97.222593 
L 303.09892 96.058182 
L 300.872727 94.1946 
L 300.269834 93.861818 
L 297.490909 92.552296 
L 294.109091 92.018014 
L 290.727273 92.536405 
L 287.513401 93.861818 
L 287.345455 93.919339 
L 283.963636 95.441706 
L 282.550548 96.058182 
L 280.581818 96.685981 
L 277.2 97.475506 
L 273.818182 97.858444 
L 270.436364 97.812671 
L 267.054545 97.333821 
L 263.672727 96.434296 
L 262.657757 96.058182 
L 260.290909 94.89851 
L 258.479677 93.861818 
L 256.909091 92.608298 
L 255.708056 91.665455 
L 253.687555 89.469091 
L 253.527273 89.221928 
L 251.940111 87.272727 
L 250.400394 85.076364 
L 250.145455 84.680966 
L 248.197431 82.88 
L 246.763636 81.863634 
L 243.381818 80.939042 
L 240 80.908316 
L 236.618182 81.425923 
L 233.236364 82.39598 
L 232.105404 82.88 
L 229.854545 83.905484 
L 228.088809 85.076364 
L 226.472727 86.293876 
L 225.528064 87.272727 
L 223.670362 89.469091 
L 223.090909 90.240796 
L 222.205411 91.665455 
L 220.99015 93.861818 
L 219.95308 96.058182 
L 219.709091 96.811876 
L 219.246084 98.254545 
L 218.984241 100.450909 
L 219.406089 102.647273 
L 219.709091 103.175333 
L 220.984322 104.843636 
L 223.090909 106.61818 
L 223.581928 107.04 
L 226.130989 109.236364 
L 226.472727 109.544063 
L 227.963059 111.432727 
L 229.644319 113.629091 
L 229.854545 113.87724 
L 231.176945 115.825455 
L 232.815524 118.021818 
L 233.236364 118.576056 
L 234.343864 120.218182 
L 235.711788 122.414545 
L 236.618182 124.106578 
L 236.874553 124.610909 
L 237.882969 126.807273 
L 238.930265 129.003636 
L 240 130.841906 
L 240.228783 131.2 
L 242.046412 133.396364 
L 243.381818 134.591703 
L 244.813185 135.592727 
L 246.763636 136.678462 
L 249.753235 137.789091 
z
M 255.16256 135.592727 
L 253.527273 135.423082 
L 250.145455 134.456001 
L 247.999436 133.396364 
L 246.763636 132.62045 
L 245.160886 131.2 
L 243.381818 129.07139 
L 243.335235 129.003636 
L 242.124663 126.807273 
L 241.042835 124.610909 
L 240 122.605684 
L 239.903429 122.414545 
L 238.626511 120.218182 
L 237.251929 118.021818 
L 236.618182 116.949066 
L 235.894302 115.825455 
L 234.703501 113.629091 
L 233.801762 111.432727 
L 233.236364 109.646665 
L 233.064167 109.236364 
L 232.165658 107.04 
L 231.023577 104.843636 
L 229.854545 103.053603 
L 229.491419 102.647273 
L 227.776012 100.450909 
L 226.813467 98.254545 
L 226.821842 96.058182 
L 227.728683 93.861818 
L 229.371251 91.665455 
L 229.854545 91.186918 
L 232.321335 89.469091 
L 233.236364 88.945185 
L 236.618182 87.831797 
L 240 87.543393 
L 243.381818 88.096033 
L 246.426377 89.469091 
L 246.763636 89.603345 
L 249.921023 91.665455 
L 250.145455 91.782526 
L 253.176566 93.861818 
L 253.527273 94.043213 
L 256.909091 95.991693 
L 257.025982 96.058182 
L 260.290909 97.462672 
L 262.504768 98.254545 
L 263.672727 98.595136 
L 267.054545 99.326165 
L 270.436364 99.754733 
L 273.818182 99.883444 
L 277.2 99.723265 
L 280.581818 99.296825 
L 283.963636 98.653625 
L 285.933023 98.254545 
L 287.345455 97.878222 
L 290.727273 97.262769 
L 294.109091 97.293412 
L 296.949928 98.254545 
L 297.490909 98.476476 
L 300.001085 100.450909 
L 300.872727 101.273316 
L 302.026672 102.647273 
L 303.658495 104.843636 
L 304.254545 105.821401 
L 304.974864 107.04 
L 305.849178 109.236364 
L 306.074304 111.432727 
L 305.43933 113.629091 
L 304.254545 115.187239 
L 303.78987 115.825455 
L 301.227611 118.021818 
L 300.872727 118.259113 
L 298.170442 120.218182 
L 297.490909 120.673843 
L 295.011812 122.414545 
L 294.109091 123.070378 
L 291.824832 124.610909 
L 290.727273 125.406853 
L 288.231811 126.807273 
L 287.345455 127.334026 
L 283.963636 128.642613 
L 282.267336 129.003636 
L 280.581818 129.408278 
L 277.2 129.87344 
L 273.818182 130.43999 
L 271.844409 131.2 
L 270.436364 131.722462 
L 267.482306 133.396364 
L 267.054545 133.558769 
L 263.672727 134.779845 
L 260.290909 135.567639 
L 259.928784 135.592727 
L 256.909091 135.747602 
z
" style="fill:#91c3de;"/>
   </g>
   <g id="PathCollection_6">
    <path clip-path="url(#p80dea5fbdf)" d="M 256.909091 135.747602 
L 259.928784 135.592727 
L 260.290909 135.567639 
L 263.672727 134.779845 
L 267.054545 133.558769 
L 267.482306 133.396364 
L 270.436364 131.722462 
L 271.844409 131.2 
L 273.818182 130.43999 
L 277.2 129.87344 
L 280.581818 129.408278 
L 282.267336 129.003636 
L 283.963636 128.642613 
L 287.345455 127.334026 
L 288.231811 126.807273 
L 290.727273 125.406853 
L 291.824832 124.610909 
L 294.109091 123.070378 
L 295.011812 122.414545 
L 297.490909 120.673843 
L 298.170442 120.218182 
L 300.872727 118.259113 
L 301.227611 118.021818 
L 303.78987 115.825455 
L 304.254545 115.187239 
L 305.43933 113.629091 
L 306.074304 111.432727 
L 305.849178 109.236364 
L 304.974864 107.04 
L 304.254545 105.821401 
L 303.658495 104.843636 
L 302.026672 102.647273 
L 300.872727 101.273316 
L 300.001085 100.450909 
L 297.490909 98.476476 
L 296.949928 98.254545 
L 294.109091 97.293412 
L 290.727273 97.262769 
L 287.345455 97.878222 
L 285.933023 98.254545 
L 283.963636 98.653625 
L 280.581818 99.296825 
L 277.2 99.723265 
L 273.818182 99.883444 
L 270.436364 99.754733 
L 267.054545 99.326165 
L 263.672727 98.595136 
L 262.504768 98.254545 
L 260.290909 97.462672 
L 257.025982 96.058182 
L 256.909091 95.991693 
L 253.527273 94.043213 
L 253.176566 93.861818 
L 250.145455 91.782526 
L 249.921023 91.665455 
L 246.763636 89.603345 
L 246.426377 89.469091 
L 243.381818 88.096033 
L 240 87.543393 
L 236.618182 87.831797 
L 233.236364 88.945185 
L 232.321335 89.469091 
L 229.854545 91.186918 
L 229.371251 91.665455 
L 227.728683 93.861818 
L 226.821842 96.058182 
L 226.813467 98.254545 
L 227.776012 100.450909 
L 229.491419 102.647273 
L 229.854545 103.053603 
L 231.023577 104.843636 
L 232.165658 107.04 
L 233.064167 109.236364 
L 233.236364 109.646665 
L 233.801762 111.432727 
L 234.703501 113.629091 
L 235.894302 115.825455 
L 236.618182 116.949066 
L 237.251929 118.021818 
L 238.626511 120.218182 
L 239.903429 122.414545 
L 240 122.605684 
L 241.042835 124.610909 
L 242.124663 126.807273 
L 243.335235 129.003636 
L 243.381818 129.07139 
L 245.160886 131.2 
L 246.763636 132.62045 
L 247.999436 133.396364 
L 250.145455 134.456001 
L 253.527273 135.423082 
L 255.16256 135.592727 
z
M 254.435637 131.2 
L 253.527273 131.17433 
L 250.145455 129.731983 
L 249.252883 129.003636 
L 247.082946 126.807273 
L 246.763636 126.457986 
L 245.622075 124.610909 
L 244.204652 122.414545 
L 243.381818 121.261679 
L 242.739578 120.218182 
L 241.287385 118.021818 
L 240 115.900155 
L 239.954158 115.825455 
L 238.836563 113.629091 
L 238.068957 111.432727 
L 237.599282 109.236364 
L 237.296848 107.04 
L 237.023607 104.843636 
L 236.692276 102.647273 
L 236.618182 102.104026 
L 236.31184 100.450909 
L 236.225672 98.254545 
L 236.618182 97.072748 
L 237.138971 96.058182 
L 240 94.349627 
L 243.381818 94.07968 
L 246.763636 94.72623 
L 250.145455 95.890282 
L 250.482515 96.058182 
L 253.527273 97.200237 
L 256.137422 98.254545 
L 256.909091 98.498402 
L 260.290909 99.584199 
L 263.524312 100.450909 
L 263.672727 100.486064 
L 267.054545 101.127795 
L 270.436364 101.548147 
L 273.818182 101.756542 
L 277.2 101.77415 
L 280.581818 101.63986 
L 283.963636 101.428467 
L 287.345455 101.289634 
L 290.727273 101.508496 
L 294.109091 102.549351 
L 294.278108 102.647273 
L 297.267684 104.843636 
L 297.490909 105.07211 
L 299.037982 107.04 
L 300.105682 109.236364 
L 300.393208 111.432727 
L 299.791229 113.629091 
L 298.243279 115.825455 
L 297.490909 116.507152 
L 295.882984 118.021818 
L 294.109091 119.360646 
L 292.917606 120.218182 
L 290.727273 121.666707 
L 289.308155 122.414545 
L 287.345455 123.458994 
L 283.963636 124.536205 
L 283.179499 124.610909 
L 280.581818 124.902252 
L 277.2 124.612633 
L 277.189576 124.610909 
L 273.818182 124.160584 
L 270.436364 123.967766 
L 267.054545 124.404595 
L 266.427467 124.610909 
L 263.672727 126.242007 
L 262.915179 126.807273 
L 260.987055 129.003636 
L 260.290909 129.647074 
L 257.126197 131.2 
L 256.909091 131.258274 
z
" style="fill:#6aaed6;"/>
   </g>
   <g id="PathCollection_7">
    <path clip-path="url(#p80dea5fbdf)" d="M 256.909091 131.258274 
L 257.126197 131.2 
L 260.290909 129.647074 
L 260.987055 129.003636 
L 262.915179 126.807273 
L 263.672727 126.242007 
L 266.427467 124.610909 
L 267.054545 124.404595 
L 270.436364 123.967766 
L 273.818182 124.160584 
L 277.189576 124.610909 
L 277.2 124.612633 
L 280.581818 124.902252 
L 283.179499 124.610909 
L 283.963636 124.536205 
L 287.345455 123.458994 
L 289.308155 122.414545 
L 290.727273 121.666707 
L 292.917606 120.218182 
L 294.109091 119.360646 
L 295.882984 118.021818 
L 297.490909 116.507152 
L 298.243279 115.825455 
L 299.791229 113.629091 
L 300.393208 111.432727 
L 300.105682 109.236364 
L 299.037982 107.04 
L 297.490909 105.07211 
L 297.267684 104.843636 
L 294.278108 102.647273 
L 294.109091 102.549351 
L 290.727273 101.508496 
L 287.345455 101.289634 
L 283.963636 101.428467 
L 280.581818 101.63986 
L 277.2 101.77415 
L 273.818182 101.756542 
L 270.436364 101.548147 
L 267.054545 101.127795 
L 263.672727 100.486064 
L 263.524312 100.450909 
L 260.290909 99.584199 
L 256.909091 98.498402 
L 256.137422 98.254545 
L 253.527273 97.200237 
L 250.482515 96.058182 
L 250.145455 95.890282 
L 246.763636 94.72623 
L 243.381818 94.07968 
L 240 94.349627 
L 237.138971 96.058182 
L 236.618182 97.072748 
L 236.225672 98.254545 
L 236.31184 100.450909 
L 236.618182 102.104026 
L 236.692276 102.647273 
L 237.023607 104.843636 
L 237.296848 107.04 
L 237.599282 109.236364 
L 238.068957 111.432727 
L 238.836563 113.629091 
L 239.954158 115.825455 
L 240 115.900155 
L 241.287385 118.021818 
L 242.739578 120.218182 
L 243.381818 121.261679 
L 244.204652 122.414545 
L 245.622075 124.610909 
L 246.763636 126.457986 
L 247.082946 126.807273 
L 249.252883 129.003636 
L 250.145455 129.731983 
L 253.527273 131.17433 
L 254.435637 131.2 
z
M 249.755282 122.414545 
L 247.262606 120.218182 
L 246.763636 119.777103 
L 245.327029 118.021818 
L 243.727436 115.825455 
L 243.381818 115.218751 
L 242.535747 113.629091 
L 241.779626 111.432727 
L 241.4278 109.236364 
L 241.409599 107.04 
L 241.688285 104.843636 
L 242.362289 102.647273 
L 243.381818 101.023887 
L 244.102163 100.450909 
L 246.763636 99.354976 
L 250.145455 99.352319 
L 253.527273 99.938187 
L 255.52959 100.450909 
L 256.909091 100.741756 
L 260.290909 101.548674 
L 263.672727 102.269118 
L 265.825569 102.647273 
L 267.054545 102.86645 
L 270.436364 103.323435 
L 273.818182 103.632519 
L 277.2 103.828123 
L 280.581818 103.974784 
L 283.963636 104.188248 
L 287.345455 104.675181 
L 287.966711 104.843636 
L 290.727273 105.914999 
L 292.428724 107.04 
L 294.109091 108.954381 
L 294.305108 109.236364 
L 294.911587 111.432727 
L 294.484987 113.629091 
L 294.109091 114.198786 
L 293.011784 115.825455 
L 290.727273 117.912486 
L 290.585132 118.021818 
L 287.345455 119.924077 
L 286.535237 120.218182 
L 283.963636 121.054666 
L 280.581818 121.391587 
L 277.2 121.18945 
L 273.818182 120.837655 
L 270.436364 120.690747 
L 267.054545 120.949922 
L 263.672727 121.633547 
L 260.852779 122.414545 
L 260.290909 122.651581 
L 256.909091 123.840696 
L 253.527273 124.148671 
L 250.145455 122.791738 
z
" style="fill:#4d99ca;"/>
   </g>
   <g id="PathCollection_8">
    <path clip-path="url(#p80dea5fbdf)" d="M 250.145455 122.791738 
L 253.527273 124.148671 
L 256.909091 123.840696 
L 260.290909 122.651581 
L 260.852779 122.414545 
L 263.672727 121.633547 
L 267.054545 120.949922 
L 270.436364 120.690747 
L 273.818182 120.837655 
L 277.2 121.18945 
L 280.581818 121.391587 
L 283.963636 121.054666 
L 286.535237 120.218182 
L 287.345455 119.924077 
L 290.585132 118.021818 
L 290.727273 117.912486 
L 293.011784 115.825455 
L 294.109091 114.198786 
L 294.484987 113.629091 
L 294.911587 111.432727 
L 294.305108 109.236364 
L 294.109091 108.954381 
L 292.428724 107.04 
L 290.727273 105.914999 
L 287.966711 104.843636 
L 287.345455 104.675181 
L 283.963636 104.188248 
L 280.581818 103.974784 
L 277.2 103.828123 
L 273.818182 103.632519 
L 270.436364 103.323435 
L 267.054545 102.86645 
L 265.825569 102.647273 
L 263.672727 102.269118 
L 260.290909 101.548674 
L 256.909091 100.741756 
L 255.52959 100.450909 
L 253.527273 99.938187 
L 250.145455 99.352319 
L 246.763636 99.354976 
L 244.102163 100.450909 
L 243.381818 101.023887 
L 242.362289 102.647273 
L 241.688285 104.843636 
L 241.409599 107.04 
L 241.4278 109.236364 
L 241.779626 111.432727 
L 242.535747 113.629091 
L 243.381818 115.218751 
L 243.727436 115.825455 
L 245.327029 118.021818 
L 246.763636 119.777103 
L 247.262606 120.218182 
L 249.755282 122.414545 
z
M 250.067224 118.021818 
L 247.742664 115.825455 
L 246.763636 114.53445 
L 246.205469 113.629091 
L 245.385335 111.432727 
L 245.141574 109.236364 
L 245.486419 107.04 
L 246.584112 104.843636 
L 246.763636 104.634245 
L 250.145455 102.800965 
L 252.275512 102.647273 
L 253.527273 102.5861 
L 254.041586 102.647273 
L 256.909091 102.951017 
L 260.290909 103.524709 
L 263.672727 104.126669 
L 267.054545 104.676787 
L 268.260426 104.843636 
L 270.436364 105.20898 
L 273.818182 105.682393 
L 277.2 106.113502 
L 280.581818 106.604999 
L 282.725556 107.04 
L 283.963636 107.440269 
L 287.345455 109.127071 
L 287.497016 109.236364 
L 288.908595 111.432727 
L 288.72045 113.629091 
L 287.345455 115.494443 
L 287.017669 115.825455 
L 283.963636 117.427555 
L 281.368375 118.021818 
L 280.581818 118.153212 
L 277.2 118.22145 
L 273.818182 118.123165 
L 270.436364 118.140719 
L 267.054545 118.403293 
L 263.672727 118.902809 
L 260.290909 119.500821 
L 256.909091 119.904724 
L 253.527273 119.639753 
L 250.145455 118.08809 
z
" style="fill:#3383be;"/>
   </g>
   <g id="PathCollection_9">
    <path clip-path="url(#p80dea5fbdf)" d="M 250.145455 118.08809 
L 253.527273 119.639753 
L 256.909091 119.904724 
L 260.290909 119.500821 
L 263.672727 118.902809 
L 267.054545 118.403293 
L 270.436364 118.140719 
L 273.818182 118.123165 
L 277.2 118.22145 
L 280.581818 118.153212 
L 281.368375 118.021818 
L 283.963636 117.427555 
L 287.017669 115.825455 
L 287.345455 115.494443 
L 288.72045 113.629091 
L 288.908595 111.432727 
L 287.497016 109.236364 
L 287.345455 109.127071 
L 283.963636 107.440269 
L 282.725556 107.04 
L 280.581818 106.604999 
L 277.2 106.113502 
L 273.818182 105.682393 
L 270.436364 105.20898 
L 268.260426 104.843636 
L 267.054545 104.676787 
L 263.672727 104.126669 
L 260.290909 103.524709 
L 256.909091 102.951017 
L 254.041586 102.647273 
L 253.527273 102.5861 
L 252.275512 102.647273 
L 250.145455 102.800965 
L 246.763636 104.634245 
L 246.584112 104.843636 
L 245.486419 107.04 
L 245.141574 109.236364 
L 245.385335 111.432727 
L 246.205469 113.629091 
L 246.763636 114.53445 
L 247.742664 115.825455 
L 250.067224 118.021818 
z
M 253.169834 115.825455 
L 250.44176 113.629091 
L 250.145455 113.150068 
L 249.373995 111.432727 
L 249.319749 109.236364 
L 250.145455 107.500452 
L 250.538204 107.04 
L 253.527273 105.661412 
L 256.909091 105.422219 
L 260.290909 105.737747 
L 263.672727 106.261337 
L 267.054545 106.837751 
L 268.258705 107.04 
L 270.436364 107.596784 
L 273.818182 108.415892 
L 277.104755 109.236364 
L 277.2 109.293533 
L 280.540601 111.432727 
L 279.766201 113.629091 
L 277.2 114.442345 
L 273.818182 114.975378 
L 270.436364 115.396092 
L 267.63463 115.825455 
L 267.054545 115.887328 
L 263.672727 116.34776 
L 260.290909 116.757215 
L 256.909091 116.811902 
L 253.527273 116.027026 
z
" style="fill:#1c6bb0;"/>
   </g>
   <g id="PathCollection_10">
    <path clip-path="url(#p80dea5fbdf)" d="M 253.527273 116.027026 
L 256.909091 116.811902 
L 260.290909 116.757215 
L 263.672727 116.34776 
L 267.054545 115.887328 
L 267.63463 115.825455 
L 270.436364 115.396092 
L 273.818182 114.975378 
L 277.2 114.442345 
L 279.766201 113.629091 
L 280.540601 111.432727 
L 277.2 109.293533 
L 277.104755 109.236364 
L 273.818182 108.415892 
L 270.436364 107.596784 
L 268.258705 107.04 
L 267.054545 106.837751 
L 263.672727 106.261337 
L 260.290909 105.737747 
L 256.909091 105.422219 
L 253.527273 105.661412 
L 250.538204 107.04 
L 250.145455 107.500452 
L 249.319749 109.236364 
L 249.373995 111.432727 
L 250.145455 113.150068 
L 250.44176 113.629091 
L 253.169834 115.825455 
z
M 255.784693 111.432727 
L 256.809989 109.236364 
L 256.909091 109.196153 
L 260.290909 108.980903 
L 262.153028 109.236364 
L 263.672727 109.901913 
L 265.836992 111.432727 
L 263.672727 112.38363 
L 260.290909 113.115965 
L 256.909091 112.397596 
z
" style="fill:#0a539e;"/>
   </g>
   <g id="PathCollection_11">
    <path clip-path="url(#p80dea5fbdf)" d="M 256.909091 112.397596 
L 260.290909 113.115965 
L 263.672727 112.38363 
L 265.836992 111.432727 
L 263.672727 109.901913 
L 262.153028 109.236364 
L 260.290909 108.980903 
L 256.909091 109.196153 
L 256.809989 109.236364 
L 255.784693 111.432727 
z
" style="fill:#083b7c;"/>
   </g>
   <g id="patch_3">
    <path d="M 54 252 
L 54 34.56 
" style="fill:none;stroke:#262626;stroke-linecap:square;stroke-linejoin:miter;stroke-width:1.25;"/>
   </g>
   <g id="patch_4">
    <path d="M 388.8 252 
L 388.8 34.56 
" style="fill:none;stroke:#262626;stroke-linecap:square;stroke-linejoin:miter;stroke-width:1.25;"/>
   </g>
   <g id="patch_5">
    <path d="M 54 252 
L 388.8 252 
" style="fill:none;stroke:#262626;stroke-linecap:square;stroke-linejoin:miter;stroke-width:1.25;"/>
   </g>
   <g id="patch_6">
    <path d="M 54 34.56 
L 388.8 34.56 
" style="fill:none;stroke:#262626;stroke-linecap:square;stroke-linejoin:miter;stroke-width:1.25;"/>
   </g>
  </g>
 </g>
 <defs>
  <clipPath id="p80dea5fbdf">
   <rect height="217.44" width="334.8" x="54" y="34.56"/>
  </clipPath>
 </defs>
</svg>
